solid OpenSCAD_Model
  facet normal 0 1 -0
    outer loop
      vertex 18.13 6 0.0500004
      vertex -18.13 6 1.35
      vertex 18.13 6 1.35
    endloop
  endfacet
  facet normal 0 1 0
    outer loop
      vertex -18.13 6 1.35
      vertex 18.13 6 0.0500004
      vertex -18.13 6 0.0500004
    endloop
  endfacet
  facet normal 0 -1 0
    outer loop
      vertex -18.13 -6 0.0500004
      vertex 18.13 -6 1.35
      vertex -18.13 -6 1.35
    endloop
  endfacet
  facet normal 0 -1 -0
    outer loop
      vertex 18.13 -6 1.35
      vertex -18.13 -6 0.0500004
      vertex 18.13 -6 0.0500004
    endloop
  endfacet
  facet normal 0.995563 0.0940925 0
    outer loop
      vertex 19.0623 1.1993 1.35
      vertex 18.9494 2.39386 0.0500004
      vertex 18.9494 2.39386 1.35
    endloop
  endfacet
  facet normal 0.995563 0.0940925 0
    outer loop
      vertex 18.9494 2.39386 0.0500004
      vertex 19.0623 1.1993 1.35
      vertex 19.0623 1.1993 0.0500004
    endloop
  endfacet
  facet normal 0.999506 0.0314195 0
    outer loop
      vertex 19.1 0 1.35
      vertex 19.0623 1.1993 0.0500004
      vertex 19.0623 1.1993 1.35
    endloop
  endfacet
  facet normal 0.999506 0.0314195 0
    outer loop
      vertex 19.0623 1.1993 0.0500004
      vertex 19.1 0 1.35
      vertex 19.1 0 0.0500004
    endloop
  endfacet
  facet normal 0.987689 0.156431 0
    outer loop
      vertex 18.9494 2.39386 1.35
      vertex 18.7617 3.57898 0.0500004
      vertex 18.7617 3.57898 1.35
    endloop
  endfacet
  facet normal 0.987689 0.156431 0
    outer loop
      vertex 18.7617 3.57898 0.0500004
      vertex 18.9494 2.39386 1.35
      vertex 18.9494 2.39386 0.0500004
    endloop
  endfacet
  facet normal 0.987689 -0.156431 0
    outer loop
      vertex 18.7617 -3.57898 1.35
      vertex 18.9494 -2.39386 0.0500004
      vertex 18.9494 -2.39386 1.35
    endloop
  endfacet
  facet normal 0.987689 -0.156431 0
    outer loop
      vertex 18.9494 -2.39386 0.0500004
      vertex 18.7617 -3.57898 1.35
      vertex 18.7617 -3.57898 0.0500004
    endloop
  endfacet
  facet normal 0.94089 0.338713 0
    outer loop
      vertex 18.1652 5.90222 1.35
      vertex 18.13 6 0.0500004
      vertex 18.13 6 1.35
    endloop
  endfacet
  facet normal 0.94089 0.338713 0
    outer loop
      vertex 18.13 6 0.0500004
      vertex 18.1652 5.90222 1.35
      vertex 18.1652 5.90222 0.0500004
    endloop
  endfacet
  facet normal -0.999506 0.0314195 0
    outer loop
      vertex -19.1 0 0.0500004
      vertex -19.0623 1.1993 1.35
      vertex -19.0623 1.1993 0.0500004
    endloop
  endfacet
  facet normal -0.999506 0.0314195 0
    outer loop
      vertex -19.0623 1.1993 1.35
      vertex -19.1 0 0.0500004
      vertex -19.1 0 1.35
    endloop
  endfacet
  facet normal 0.999506 -0.0314195 0
    outer loop
      vertex 19.0623 -1.1993 1.35
      vertex 19.1 0 0.0500004
      vertex 19.1 0 1.35
    endloop
  endfacet
  facet normal 0.999506 -0.0314195 0
    outer loop
      vertex 19.1 0 0.0500004
      vertex 19.0623 -1.1993 1.35
      vertex 19.0623 -1.1993 0.0500004
    endloop
  endfacet
  facet normal -0.960306 0.278948 0
    outer loop
      vertex -18.4999 4.74998 0.0500004
      vertex -18.1652 5.90222 1.35
      vertex -18.1652 5.90222 0.0500004
    endloop
  endfacet
  facet normal -0.960306 0.278948 0
    outer loop
      vertex -18.1652 5.90222 1.35
      vertex -18.4999 4.74998 0.0500004
      vertex -18.4999 4.74998 1.35
    endloop
  endfacet
  facet normal -0.94089 0.338713 0
    outer loop
      vertex -18.1652 5.90222 0.0500004
      vertex -18.13 6 1.35
      vertex -18.13 6 0.0500004
    endloop
  endfacet
  facet normal -0.94089 0.338713 0
    outer loop
      vertex -18.13 6 1.35
      vertex -18.1652 5.90222 0.0500004
      vertex -18.1652 5.90222 1.35
    endloop
  endfacet
  facet normal -0.995563 -0.0940925 0
    outer loop
      vertex -18.9494 -2.39386 0.0500004
      vertex -19.0623 -1.1993 1.35
      vertex -19.0623 -1.1993 0.0500004
    endloop
  endfacet
  facet normal -0.995563 -0.0940925 0
    outer loop
      vertex -19.0623 -1.1993 1.35
      vertex -18.9494 -2.39386 0.0500004
      vertex -18.9494 -2.39386 1.35
    endloop
  endfacet
  facet normal 0.975908 -0.218183 0
    outer loop
      vertex 18.4999 -4.74998 1.35
      vertex 18.7617 -3.57898 0.0500004
      vertex 18.7617 -3.57898 1.35
    endloop
  endfacet
  facet normal 0.975908 -0.218183 0
    outer loop
      vertex 18.7617 -3.57898 0.0500004
      vertex 18.4999 -4.74998 1.35
      vertex 18.4999 -4.74998 0.0500004
    endloop
  endfacet
  facet normal 0.960306 0.278948 0
    outer loop
      vertex 18.4999 4.74998 1.35
      vertex 18.1652 5.90222 0.0500004
      vertex 18.1652 5.90222 1.35
    endloop
  endfacet
  facet normal 0.960306 0.278948 0
    outer loop
      vertex 18.1652 5.90222 0.0500004
      vertex 18.4999 4.74998 1.35
      vertex 18.4999 4.74998 0.0500004
    endloop
  endfacet
  facet normal -0.975908 -0.218183 0
    outer loop
      vertex -18.4999 -4.74998 0.0500004
      vertex -18.7617 -3.57898 1.35
      vertex -18.7617 -3.57898 0.0500004
    endloop
  endfacet
  facet normal -0.975908 -0.218183 0
    outer loop
      vertex -18.7617 -3.57898 1.35
      vertex -18.4999 -4.74998 0.0500004
      vertex -18.4999 -4.74998 1.35
    endloop
  endfacet
  facet normal -0.987689 0.156431 0
    outer loop
      vertex -18.9494 2.39386 0.0500004
      vertex -18.7617 3.57898 1.35
      vertex -18.7617 3.57898 0.0500004
    endloop
  endfacet
  facet normal -0.987689 0.156431 0
    outer loop
      vertex -18.7617 3.57898 1.35
      vertex -18.9494 2.39386 0.0500004
      vertex -18.9494 2.39386 1.35
    endloop
  endfacet
  facet normal 0.995563 -0.0940925 0
    outer loop
      vertex 18.9494 -2.39386 1.35
      vertex 19.0623 -1.1993 0.0500004
      vertex 19.0623 -1.1993 1.35
    endloop
  endfacet
  facet normal 0.995563 -0.0940925 0
    outer loop
      vertex 19.0623 -1.1993 0.0500004
      vertex 18.9494 -2.39386 1.35
      vertex 18.9494 -2.39386 0.0500004
    endloop
  endfacet
  facet normal 0.975908 0.218183 0
    outer loop
      vertex 18.7617 3.57898 1.35
      vertex 18.4999 4.74998 0.0500004
      vertex 18.4999 4.74998 1.35
    endloop
  endfacet
  facet normal 0.975908 0.218183 0
    outer loop
      vertex 18.4999 4.74998 0.0500004
      vertex 18.7617 3.57898 1.35
      vertex 18.7617 3.57898 0.0500004
    endloop
  endfacet
  facet normal -0.987689 -0.156431 0
    outer loop
      vertex -18.7617 -3.57898 0.0500004
      vertex -18.9494 -2.39386 1.35
      vertex -18.9494 -2.39386 0.0500004
    endloop
  endfacet
  facet normal -0.987689 -0.156431 0
    outer loop
      vertex -18.9494 -2.39386 1.35
      vertex -18.7617 -3.57898 0.0500004
      vertex -18.7617 -3.57898 1.35
    endloop
  endfacet
  facet normal -0.960306 -0.278948 0
    outer loop
      vertex -18.1652 -5.90222 0.0500004
      vertex -18.4999 -4.74998 1.35
      vertex -18.4999 -4.74998 0.0500004
    endloop
  endfacet
  facet normal -0.960306 -0.278948 0
    outer loop
      vertex -18.4999 -4.74998 1.35
      vertex -18.1652 -5.90222 0.0500004
      vertex -18.1652 -5.90222 1.35
    endloop
  endfacet
  facet normal 0.960306 -0.278948 0
    outer loop
      vertex 18.1652 -5.90222 1.35
      vertex 18.4999 -4.74998 0.0500004
      vertex 18.4999 -4.74998 1.35
    endloop
  endfacet
  facet normal 0.960306 -0.278948 0
    outer loop
      vertex 18.4999 -4.74998 0.0500004
      vertex 18.1652 -5.90222 1.35
      vertex 18.1652 -5.90222 0.0500004
    endloop
  endfacet
  facet normal -0.975908 0.218183 0
    outer loop
      vertex -18.7617 3.57898 0.0500004
      vertex -18.4999 4.74998 1.35
      vertex -18.4999 4.74998 0.0500004
    endloop
  endfacet
  facet normal -0.975908 0.218183 0
    outer loop
      vertex -18.4999 4.74998 1.35
      vertex -18.7617 3.57898 0.0500004
      vertex -18.7617 3.57898 1.35
    endloop
  endfacet
  facet normal -0.999506 -0.0314195 0
    outer loop
      vertex -19.0623 -1.1993 0.0500004
      vertex -19.1 0 1.35
      vertex -19.1 0 0.0500004
    endloop
  endfacet
  facet normal -0.999506 -0.0314195 0
    outer loop
      vertex -19.1 0 1.35
      vertex -19.0623 -1.1993 0.0500004
      vertex -19.0623 -1.1993 1.35
    endloop
  endfacet
  facet normal 0 0 1
    outer loop
      vertex 4.75 0 1.35
      vertex 19.1 0 1.35
      vertex 19.0623 1.1993 1.35
    endloop
  endfacet
  facet normal 0 0 1
    outer loop
      vertex 4.74063 0.298255 1.35
      vertex 19.0623 1.1993 1.35
      vertex 18.9494 2.39386 1.35
    endloop
  endfacet
  facet normal 0 0 1
    outer loop
      vertex 19.1 0 1.35
      vertex 4.75 0 1.35
      vertex 19.0623 -1.1993 1.35
    endloop
  endfacet
  facet normal 0 0 1
    outer loop
      vertex 4.71254 0.595332 1.35
      vertex 18.9494 2.39386 1.35
      vertex 18.7617 3.57898 1.35
    endloop
  endfacet
  facet normal -0 0 1
    outer loop
      vertex 4.74063 -0.298255 1.35
      vertex 19.0623 -1.1993 1.35
      vertex 4.75 0 1.35
    endloop
  endfacet
  facet normal 0 0 1
    outer loop
      vertex 4.66586 0.89006 1.35
      vertex 18.7617 3.57898 1.35
      vertex 18.4999 4.74998 1.35
    endloop
  endfacet
  facet normal 0 0 1
    outer loop
      vertex 19.0623 -1.1993 1.35
      vertex 4.74063 -0.298255 1.35
      vertex 18.9494 -2.39386 1.35
    endloop
  endfacet
  facet normal 0 0 1
    outer loop
      vertex 4.60077 1.18128 1.35
      vertex 18.4999 4.74998 1.35
      vertex 18.1652 5.90222 1.35
    endloop
  endfacet
  facet normal -0 0 1
    outer loop
      vertex 4.71254 -0.595332 1.35
      vertex 18.9494 -2.39386 1.35
      vertex 4.74063 -0.298255 1.35
    endloop
  endfacet
  facet normal 0 0 1
    outer loop
      vertex 4.51752 1.46783 1.35
      vertex 18.1652 5.90222 1.35
      vertex 18.13 6 1.35
    endloop
  endfacet
  facet normal 0 0 1
    outer loop
      vertex 18.9494 -2.39386 1.35
      vertex 4.71254 -0.595332 1.35
      vertex 18.7617 -3.57898 1.35
    endloop
  endfacet
  facet normal -0 0 1
    outer loop
      vertex 4.66586 -0.89006 1.35
      vertex 18.7617 -3.57898 1.35
      vertex 4.71254 -0.595332 1.35
    endloop
  endfacet
  facet normal 0 0 1
    outer loop
      vertex 19.0623 1.1993 1.35
      vertex 4.74063 0.298255 1.35
      vertex 4.75 0 1.35
    endloop
  endfacet
  facet normal 0 0 1
    outer loop
      vertex 18.9494 2.39386 1.35
      vertex 4.71254 0.595332 1.35
      vertex 4.74063 0.298255 1.35
    endloop
  endfacet
  facet normal 0 0 1
    outer loop
      vertex 18.7617 3.57898 1.35
      vertex 4.66586 0.89006 1.35
      vertex 4.71254 0.595332 1.35
    endloop
  endfacet
  facet normal 0 0 1
    outer loop
      vertex 18.4999 4.74998 1.35
      vertex 4.60077 1.18128 1.35
      vertex 4.66586 0.89006 1.35
    endloop
  endfacet
  facet normal 0 0 1
    outer loop
      vertex 18.1652 5.90222 1.35
      vertex 4.51752 1.46783 1.35
      vertex 4.60077 1.18128 1.35
    endloop
  endfacet
  facet normal 0 0 1
    outer loop
      vertex 18.13 6 1.35
      vertex 4.41644 1.74859 1.35
      vertex 4.51752 1.46783 1.35
    endloop
  endfacet
  facet normal 0 0 1
    outer loop
      vertex 18.13 6 1.35
      vertex 4.29793 2.02245 1.35
      vertex 4.41644 1.74859 1.35
    endloop
  endfacet
  facet normal 0 0 1
    outer loop
      vertex 18.13 6 1.35
      vertex 4.16246 2.28833 1.35
      vertex 4.29793 2.02245 1.35
    endloop
  endfacet
  facet normal 0 0 1
    outer loop
      vertex 18.13 6 1.35
      vertex 4.01056 2.54518 1.35
      vertex 4.16246 2.28833 1.35
    endloop
  endfacet
  facet normal 0 0 1
    outer loop
      vertex 18.13 6 1.35
      vertex 3.84283 2.79198 1.35
      vertex 4.01056 2.54518 1.35
    endloop
  endfacet
  facet normal 0 0 1
    outer loop
      vertex 18.13 6 1.35
      vertex 3.65994 3.02776 1.35
      vertex 3.84283 2.79198 1.35
    endloop
  endfacet
  facet normal 0 0 1
    outer loop
      vertex 18.13 6 1.35
      vertex 3.4626 3.2516 1.35
      vertex 3.65994 3.02776 1.35
    endloop
  endfacet
  facet normal 0 0 1
    outer loop
      vertex 18.13 6 1.35
      vertex 3.2516 3.4626 1.35
      vertex 3.4626 3.2516 1.35
    endloop
  endfacet
  facet normal 0 0 1
    outer loop
      vertex 18.13 6 1.35
      vertex 3.02776 3.65994 1.35
      vertex 3.2516 3.4626 1.35
    endloop
  endfacet
  facet normal 0 0 1
    outer loop
      vertex 18.13 6 1.35
      vertex 2.79198 3.84283 1.35
      vertex 3.02776 3.65994 1.35
    endloop
  endfacet
  facet normal 0 0 1
    outer loop
      vertex 18.13 6 1.35
      vertex 2.54518 4.01056 1.35
      vertex 2.79198 3.84283 1.35
    endloop
  endfacet
  facet normal 0 0 1
    outer loop
      vertex 18.13 6 1.35
      vertex 2.28833 4.16246 1.35
      vertex 2.54518 4.01056 1.35
    endloop
  endfacet
  facet normal 0 0 1
    outer loop
      vertex 18.13 6 1.35
      vertex 2.02245 4.29793 1.35
      vertex 2.28833 4.16246 1.35
    endloop
  endfacet
  facet normal 0 0 1
    outer loop
      vertex 18.13 6 1.35
      vertex 1.74859 4.41644 1.35
      vertex 2.02245 4.29793 1.35
    endloop
  endfacet
  facet normal 0 0 1
    outer loop
      vertex 18.13 6 1.35
      vertex 1.46783 4.51752 1.35
      vertex 1.74859 4.41644 1.35
    endloop
  endfacet
  facet normal 0 0 1
    outer loop
      vertex 18.13 6 1.35
      vertex 1.18128 4.60077 1.35
      vertex 1.46783 4.51752 1.35
    endloop
  endfacet
  facet normal 0 0 1
    outer loop
      vertex 18.13 6 1.35
      vertex 0.89006 4.66586 1.35
      vertex 1.18128 4.60077 1.35
    endloop
  endfacet
  facet normal 0 0 1
    outer loop
      vertex 18.13 6 1.35
      vertex 0.595332 4.71254 1.35
      vertex 0.89006 4.66586 1.35
    endloop
  endfacet
  facet normal 0 0 1
    outer loop
      vertex 18.13 6 1.35
      vertex 0.298255 4.74063 1.35
      vertex 0.595332 4.71254 1.35
    endloop
  endfacet
  facet normal 0 0 1
    outer loop
      vertex 18.13 6 1.35
      vertex 0 4.75 1.35
      vertex 0.298255 4.74063 1.35
    endloop
  endfacet
  facet normal -0 0 1
    outer loop
      vertex -18.13 6 1.35
      vertex 0 4.75 1.35
      vertex 18.13 6 1.35
    endloop
  endfacet
  facet normal -0 0 1
    outer loop
      vertex -18.7617 3.57898 1.35
      vertex -4.66586 0.89006 1.35
      vertex -18.4999 4.74998 1.35
    endloop
  endfacet
  facet normal 0 0 1
    outer loop
      vertex -4.60077 1.18128 1.35
      vertex -18.4999 4.74998 1.35
      vertex -4.66586 0.89006 1.35
    endloop
  endfacet
  facet normal -0 0 1
    outer loop
      vertex -18.4999 4.74998 1.35
      vertex -4.60077 1.18128 1.35
      vertex -18.1652 5.90222 1.35
    endloop
  endfacet
  facet normal 0 0 1
    outer loop
      vertex -4.51752 1.46783 1.35
      vertex -18.1652 5.90222 1.35
      vertex -4.60077 1.18128 1.35
    endloop
  endfacet
  facet normal -0 0 1
    outer loop
      vertex -18.1652 5.90222 1.35
      vertex -4.51752 1.46783 1.35
      vertex -18.13 6 1.35
    endloop
  endfacet
  facet normal 0 0 1
    outer loop
      vertex -4.41644 1.74859 1.35
      vertex -18.13 6 1.35
      vertex -4.51752 1.46783 1.35
    endloop
  endfacet
  facet normal 0 0 1
    outer loop
      vertex -4.29793 2.02245 1.35
      vertex -18.13 6 1.35
      vertex -4.41644 1.74859 1.35
    endloop
  endfacet
  facet normal 0 0 1
    outer loop
      vertex -4.16246 2.28833 1.35
      vertex -18.13 6 1.35
      vertex -4.29793 2.02245 1.35
    endloop
  endfacet
  facet normal 0 0 1
    outer loop
      vertex -4.01056 2.54518 1.35
      vertex -18.13 6 1.35
      vertex -4.16246 2.28833 1.35
    endloop
  endfacet
  facet normal 0 0 1
    outer loop
      vertex -3.84283 2.79198 1.35
      vertex -18.13 6 1.35
      vertex -4.01056 2.54518 1.35
    endloop
  endfacet
  facet normal 0 0 1
    outer loop
      vertex -3.65994 3.02776 1.35
      vertex -18.13 6 1.35
      vertex -3.84283 2.79198 1.35
    endloop
  endfacet
  facet normal 0 0 1
    outer loop
      vertex -3.4626 3.2516 1.35
      vertex -18.13 6 1.35
      vertex -3.65994 3.02776 1.35
    endloop
  endfacet
  facet normal 0 0 1
    outer loop
      vertex -3.2516 3.4626 1.35
      vertex -18.13 6 1.35
      vertex -3.4626 3.2516 1.35
    endloop
  endfacet
  facet normal 0 0 1
    outer loop
      vertex -3.02776 3.65994 1.35
      vertex -18.13 6 1.35
      vertex -3.2516 3.4626 1.35
    endloop
  endfacet
  facet normal 0 0 1
    outer loop
      vertex -2.79198 3.84283 1.35
      vertex -18.13 6 1.35
      vertex -3.02776 3.65994 1.35
    endloop
  endfacet
  facet normal 0 0 1
    outer loop
      vertex -2.54518 4.01056 1.35
      vertex -18.13 6 1.35
      vertex -2.79198 3.84283 1.35
    endloop
  endfacet
  facet normal 0 0 1
    outer loop
      vertex -2.28833 4.16246 1.35
      vertex -18.13 6 1.35
      vertex -2.54518 4.01056 1.35
    endloop
  endfacet
  facet normal 0 0 1
    outer loop
      vertex -2.02245 4.29793 1.35
      vertex -18.13 6 1.35
      vertex -2.28833 4.16246 1.35
    endloop
  endfacet
  facet normal 0 0 1
    outer loop
      vertex -1.74859 4.41644 1.35
      vertex -18.13 6 1.35
      vertex -2.02245 4.29793 1.35
    endloop
  endfacet
  facet normal 0 0 1
    outer loop
      vertex -1.46783 4.51752 1.35
      vertex -18.13 6 1.35
      vertex -1.74859 4.41644 1.35
    endloop
  endfacet
  facet normal 0 0 1
    outer loop
      vertex -1.18128 4.60077 1.35
      vertex -18.13 6 1.35
      vertex -1.46783 4.51752 1.35
    endloop
  endfacet
  facet normal 0 0 1
    outer loop
      vertex -0.89006 4.66586 1.35
      vertex -18.13 6 1.35
      vertex -1.18128 4.60077 1.35
    endloop
  endfacet
  facet normal 0 0 1
    outer loop
      vertex -0.595332 4.71254 1.35
      vertex -18.13 6 1.35
      vertex -0.89006 4.66586 1.35
    endloop
  endfacet
  facet normal 0 0 1
    outer loop
      vertex -0.298255 4.74063 1.35
      vertex -18.13 6 1.35
      vertex -0.595332 4.71254 1.35
    endloop
  endfacet
  facet normal 0 0 1
    outer loop
      vertex 0 4.75 1.35
      vertex -18.13 6 1.35
      vertex -0.298255 4.74063 1.35
    endloop
  endfacet
  facet normal 0 0 1
    outer loop
      vertex 18.7617 -3.57898 1.35
      vertex 4.66586 -0.89006 1.35
      vertex 18.4999 -4.74998 1.35
    endloop
  endfacet
  facet normal -0 0 1
    outer loop
      vertex 4.60077 -1.18128 1.35
      vertex 18.4999 -4.74998 1.35
      vertex 4.66586 -0.89006 1.35
    endloop
  endfacet
  facet normal 0 0 1
    outer loop
      vertex 18.4999 -4.74998 1.35
      vertex 4.60077 -1.18128 1.35
      vertex 18.1652 -5.90222 1.35
    endloop
  endfacet
  facet normal -0 0 1
    outer loop
      vertex 4.51752 -1.46783 1.35
      vertex 18.1652 -5.90222 1.35
      vertex 4.60077 -1.18128 1.35
    endloop
  endfacet
  facet normal 0 0 1
    outer loop
      vertex 18.1652 -5.90222 1.35
      vertex 4.51752 -1.46783 1.35
      vertex 18.13 -6 1.35
    endloop
  endfacet
  facet normal -0 0 1
    outer loop
      vertex 4.41644 -1.74859 1.35
      vertex 18.13 -6 1.35
      vertex 4.51752 -1.46783 1.35
    endloop
  endfacet
  facet normal -0 0 1
    outer loop
      vertex 4.29793 -2.02245 1.35
      vertex 18.13 -6 1.35
      vertex 4.41644 -1.74859 1.35
    endloop
  endfacet
  facet normal -0 0 1
    outer loop
      vertex 4.16246 -2.28833 1.35
      vertex 18.13 -6 1.35
      vertex 4.29793 -2.02245 1.35
    endloop
  endfacet
  facet normal -0 0 1
    outer loop
      vertex 4.01056 -2.54518 1.35
      vertex 18.13 -6 1.35
      vertex 4.16246 -2.28833 1.35
    endloop
  endfacet
  facet normal -0 0 1
    outer loop
      vertex 3.84283 -2.79198 1.35
      vertex 18.13 -6 1.35
      vertex 4.01056 -2.54518 1.35
    endloop
  endfacet
  facet normal -0 0 1
    outer loop
      vertex 3.65994 -3.02776 1.35
      vertex 18.13 -6 1.35
      vertex 3.84283 -2.79198 1.35
    endloop
  endfacet
  facet normal -0 0 1
    outer loop
      vertex 3.4626 -3.2516 1.35
      vertex 18.13 -6 1.35
      vertex 3.65994 -3.02776 1.35
    endloop
  endfacet
  facet normal -0 0 1
    outer loop
      vertex 3.2516 -3.4626 1.35
      vertex 18.13 -6 1.35
      vertex 3.4626 -3.2516 1.35
    endloop
  endfacet
  facet normal -0 0 1
    outer loop
      vertex 3.02776 -3.65994 1.35
      vertex 18.13 -6 1.35
      vertex 3.2516 -3.4626 1.35
    endloop
  endfacet
  facet normal -0 0 1
    outer loop
      vertex 2.79198 -3.84283 1.35
      vertex 18.13 -6 1.35
      vertex 3.02776 -3.65994 1.35
    endloop
  endfacet
  facet normal -0 0 1
    outer loop
      vertex 2.54518 -4.01056 1.35
      vertex 18.13 -6 1.35
      vertex 2.79198 -3.84283 1.35
    endloop
  endfacet
  facet normal -0 0 1
    outer loop
      vertex 2.28833 -4.16246 1.35
      vertex 18.13 -6 1.35
      vertex 2.54518 -4.01056 1.35
    endloop
  endfacet
  facet normal -0 0 1
    outer loop
      vertex 2.02245 -4.29793 1.35
      vertex 18.13 -6 1.35
      vertex 2.28833 -4.16246 1.35
    endloop
  endfacet
  facet normal -0 0 1
    outer loop
      vertex 1.74859 -4.41644 1.35
      vertex 18.13 -6 1.35
      vertex 2.02245 -4.29793 1.35
    endloop
  endfacet
  facet normal -0 0 1
    outer loop
      vertex 1.46783 -4.51752 1.35
      vertex 18.13 -6 1.35
      vertex 1.74859 -4.41644 1.35
    endloop
  endfacet
  facet normal -0 0 1
    outer loop
      vertex 1.18128 -4.60077 1.35
      vertex 18.13 -6 1.35
      vertex 1.46783 -4.51752 1.35
    endloop
  endfacet
  facet normal -0 0 1
    outer loop
      vertex 0.89006 -4.66586 1.35
      vertex 18.13 -6 1.35
      vertex 1.18128 -4.60077 1.35
    endloop
  endfacet
  facet normal -0 0 1
    outer loop
      vertex 0.595332 -4.71254 1.35
      vertex 18.13 -6 1.35
      vertex 0.89006 -4.66586 1.35
    endloop
  endfacet
  facet normal -0 0 1
    outer loop
      vertex 0.298255 -4.74063 1.35
      vertex 18.13 -6 1.35
      vertex 0.595332 -4.71254 1.35
    endloop
  endfacet
  facet normal -0 0 1
    outer loop
      vertex 0 -4.75 1.35
      vertex 18.13 -6 1.35
      vertex 0.298255 -4.74063 1.35
    endloop
  endfacet
  facet normal 0 0 1
    outer loop
      vertex -18.13 -6 1.35
      vertex 0 -4.75 1.35
      vertex -0.298255 -4.74063 1.35
    endloop
  endfacet
  facet normal 0 0 1
    outer loop
      vertex -4.66586 0.89006 1.35
      vertex -18.7617 3.57898 1.35
      vertex -4.71254 0.595332 1.35
    endloop
  endfacet
  facet normal -0 0 1
    outer loop
      vertex -18.9494 2.39386 1.35
      vertex -4.71254 0.595332 1.35
      vertex -18.7617 3.57898 1.35
    endloop
  endfacet
  facet normal 0 0 1
    outer loop
      vertex -4.71254 0.595332 1.35
      vertex -18.9494 2.39386 1.35
      vertex -4.74063 0.298255 1.35
    endloop
  endfacet
  facet normal -0 0 1
    outer loop
      vertex -19.0623 1.1993 1.35
      vertex -4.74063 0.298255 1.35
      vertex -18.9494 2.39386 1.35
    endloop
  endfacet
  facet normal 0 0 1
    outer loop
      vertex -4.74063 0.298255 1.35
      vertex -19.0623 1.1993 1.35
      vertex -4.75 0 1.35
    endloop
  endfacet
  facet normal 0 0 1
    outer loop
      vertex -19.1 0 1.35
      vertex -4.75 0 1.35
      vertex -19.0623 1.1993 1.35
    endloop
  endfacet
  facet normal 0 0 1
    outer loop
      vertex -4.75 0 1.35
      vertex -19.1 0 1.35
      vertex -4.74063 -0.298255 1.35
    endloop
  endfacet
  facet normal 0 -0 1
    outer loop
      vertex -19.0623 -1.1993 1.35
      vertex -4.74063 -0.298255 1.35
      vertex -19.1 0 1.35
    endloop
  endfacet
  facet normal 0 0 1
    outer loop
      vertex -4.74063 -0.298255 1.35
      vertex -19.0623 -1.1993 1.35
      vertex -4.71254 -0.595332 1.35
    endloop
  endfacet
  facet normal 0 -0 1
    outer loop
      vertex -18.9494 -2.39386 1.35
      vertex -4.71254 -0.595332 1.35
      vertex -19.0623 -1.1993 1.35
    endloop
  endfacet
  facet normal 0 0 1
    outer loop
      vertex -4.71254 -0.595332 1.35
      vertex -18.9494 -2.39386 1.35
      vertex -4.66586 -0.89006 1.35
    endloop
  endfacet
  facet normal 0 -0 1
    outer loop
      vertex -18.7617 -3.57898 1.35
      vertex -4.66586 -0.89006 1.35
      vertex -18.9494 -2.39386 1.35
    endloop
  endfacet
  facet normal 0 0 1
    outer loop
      vertex -4.66586 -0.89006 1.35
      vertex -18.7617 -3.57898 1.35
      vertex -4.60077 -1.18128 1.35
    endloop
  endfacet
  facet normal 0 0 1
    outer loop
      vertex -4.60077 -1.18128 1.35
      vertex -18.4999 -4.74998 1.35
      vertex -4.51752 -1.46783 1.35
    endloop
  endfacet
  facet normal 0 -0 1
    outer loop
      vertex -18.1652 -5.90222 1.35
      vertex -4.51752 -1.46783 1.35
      vertex -18.4999 -4.74998 1.35
    endloop
  endfacet
  facet normal 0 -0 1
    outer loop
      vertex -18.13 -6 1.35
      vertex -4.51752 -1.46783 1.35
      vertex -18.1652 -5.90222 1.35
    endloop
  endfacet
  facet normal 0 0 1
    outer loop
      vertex 0 -4.75 1.35
      vertex -18.13 -6 1.35
      vertex 18.13 -6 1.35
    endloop
  endfacet
  facet normal 0 0 1
    outer loop
      vertex -0.595332 -4.71254 1.35
      vertex -18.13 -6 1.35
      vertex -0.298255 -4.74063 1.35
    endloop
  endfacet
  facet normal 0 0 1
    outer loop
      vertex -0.89006 -4.66586 1.35
      vertex -18.13 -6 1.35
      vertex -0.595332 -4.71254 1.35
    endloop
  endfacet
  facet normal 0 0 1
    outer loop
      vertex -1.18128 -4.60077 1.35
      vertex -18.13 -6 1.35
      vertex -0.89006 -4.66586 1.35
    endloop
  endfacet
  facet normal 0 0 1
    outer loop
      vertex -1.46783 -4.51752 1.35
      vertex -18.13 -6 1.35
      vertex -1.18128 -4.60077 1.35
    endloop
  endfacet
  facet normal 0 0 1
    outer loop
      vertex -1.74859 -4.41644 1.35
      vertex -18.13 -6 1.35
      vertex -1.46783 -4.51752 1.35
    endloop
  endfacet
  facet normal 0 0 1
    outer loop
      vertex -2.02245 -4.29793 1.35
      vertex -18.13 -6 1.35
      vertex -1.74859 -4.41644 1.35
    endloop
  endfacet
  facet normal 0 0 1
    outer loop
      vertex -2.28833 -4.16246 1.35
      vertex -18.13 -6 1.35
      vertex -2.02245 -4.29793 1.35
    endloop
  endfacet
  facet normal 0 0 1
    outer loop
      vertex -2.54518 -4.01056 1.35
      vertex -18.13 -6 1.35
      vertex -2.28833 -4.16246 1.35
    endloop
  endfacet
  facet normal 0 0 1
    outer loop
      vertex -4.51752 -1.46783 1.35
      vertex -18.13 -6 1.35
      vertex -4.41644 -1.74859 1.35
    endloop
  endfacet
  facet normal 0 -0 1
    outer loop
      vertex -18.4999 -4.74998 1.35
      vertex -4.60077 -1.18128 1.35
      vertex -18.7617 -3.57898 1.35
    endloop
  endfacet
  facet normal 0 0 1
    outer loop
      vertex -4.41644 -1.74859 1.35
      vertex -18.13 -6 1.35
      vertex -4.29793 -2.02245 1.35
    endloop
  endfacet
  facet normal 0 0 1
    outer loop
      vertex -3.02776 -3.65994 1.35
      vertex -18.13 -6 1.35
      vertex -2.79198 -3.84283 1.35
    endloop
  endfacet
  facet normal 0 0 1
    outer loop
      vertex -2.79198 -3.84283 1.35
      vertex -18.13 -6 1.35
      vertex -2.54518 -4.01056 1.35
    endloop
  endfacet
  facet normal 0 0 1
    outer loop
      vertex -4.29793 -2.02245 1.35
      vertex -18.13 -6 1.35
      vertex -4.16246 -2.28833 1.35
    endloop
  endfacet
  facet normal 0 0 1
    outer loop
      vertex -3.2516 -3.4626 1.35
      vertex -18.13 -6 1.35
      vertex -3.02776 -3.65994 1.35
    endloop
  endfacet
  facet normal 0 0 1
    outer loop
      vertex -4.16246 -2.28833 1.35
      vertex -18.13 -6 1.35
      vertex -4.01056 -2.54518 1.35
    endloop
  endfacet
  facet normal 0 0 1
    outer loop
      vertex -3.4626 -3.2516 1.35
      vertex -18.13 -6 1.35
      vertex -3.2516 -3.4626 1.35
    endloop
  endfacet
  facet normal 0 0 1
    outer loop
      vertex -4.01056 -2.54518 1.35
      vertex -18.13 -6 1.35
      vertex -3.84283 -2.79198 1.35
    endloop
  endfacet
  facet normal 0 0 1
    outer loop
      vertex -3.65994 -3.02776 1.35
      vertex -18.13 -6 1.35
      vertex -3.4626 -3.2516 1.35
    endloop
  endfacet
  facet normal 0 0 1
    outer loop
      vertex -3.84283 -2.79198 1.35
      vertex -18.13 -6 1.35
      vertex -3.65994 -3.02776 1.35
    endloop
  endfacet
  facet normal 0 0 -1
    outer loop
      vertex 19.0623 -1.1993 0.0500004
      vertex 19.0623 1.1993 0.0500004
      vertex 19.1 0 0.0500004
    endloop
  endfacet
  facet normal 0 0 -1
    outer loop
      vertex 18.9494 -2.39386 0.0500004
      vertex 19.0623 1.1993 0.0500004
      vertex 19.0623 -1.1993 0.0500004
    endloop
  endfacet
  facet normal 0 0 -1
    outer loop
      vertex 18.9494 -2.39386 0.0500004
      vertex 18.9494 2.39386 0.0500004
      vertex 19.0623 1.1993 0.0500004
    endloop
  endfacet
  facet normal 0 0 -1
    outer loop
      vertex 18.7617 -3.57898 0.0500004
      vertex 18.9494 2.39386 0.0500004
      vertex 18.9494 -2.39386 0.0500004
    endloop
  endfacet
  facet normal 0 0 -1
    outer loop
      vertex 18.7617 -3.57898 0.0500004
      vertex 18.7617 3.57898 0.0500004
      vertex 18.9494 2.39386 0.0500004
    endloop
  endfacet
  facet normal 0 0 -1
    outer loop
      vertex 18.4999 -4.74998 0.0500004
      vertex 18.7617 3.57898 0.0500004
      vertex 18.7617 -3.57898 0.0500004
    endloop
  endfacet
  facet normal 0 0 -1
    outer loop
      vertex 18.4999 -4.74998 0.0500004
      vertex 18.4999 4.74998 0.0500004
      vertex 18.7617 3.57898 0.0500004
    endloop
  endfacet
  facet normal 0 0 -1
    outer loop
      vertex 18.13 -6 0.0500004
      vertex 18.4999 -4.74998 0.0500004
      vertex 18.1652 -5.90222 0.0500004
    endloop
  endfacet
  facet normal -0 0 -1
    outer loop
      vertex 18.4999 -4.74998 0.0500004
      vertex 18.13 -6 0.0500004
      vertex 18.4999 4.74998 0.0500004
    endloop
  endfacet
  facet normal 0 0 -1
    outer loop
      vertex 18.13 6 0.0500004
      vertex 18.4999 4.74998 0.0500004
      vertex 18.13 -6 0.0500004
    endloop
  endfacet
  facet normal 0 0 -1
    outer loop
      vertex 18.4999 4.74998 0.0500004
      vertex 18.13 6 0.0500004
      vertex 18.1652 5.90222 0.0500004
    endloop
  endfacet
  facet normal 0 0 -1
    outer loop
      vertex -18.13 -6 0.0500004
      vertex 18.13 6 0.0500004
      vertex 18.13 -6 0.0500004
    endloop
  endfacet
  facet normal 0 0 -1
    outer loop
      vertex -18.13 -6 0.0500004
      vertex -18.13 6 0.0500004
      vertex 18.13 6 0.0500004
    endloop
  endfacet
  facet normal 0 0 -1
    outer loop
      vertex -18.4999 -4.74998 0.0500004
      vertex -18.13 -6 0.0500004
      vertex -18.1652 -5.90222 0.0500004
    endloop
  endfacet
  facet normal 0 0 -1
    outer loop
      vertex -18.13 -6 0.0500004
      vertex -18.4999 -4.74998 0.0500004
      vertex -18.13 6 0.0500004
    endloop
  endfacet
  facet normal 0 0 -1
    outer loop
      vertex -18.4999 4.74998 0.0500004
      vertex -18.13 6 0.0500004
      vertex -18.4999 -4.74998 0.0500004
    endloop
  endfacet
  facet normal 0 0 -1
    outer loop
      vertex -18.13 6 0.0500004
      vertex -18.4999 4.74998 0.0500004
      vertex -18.1652 5.90222 0.0500004
    endloop
  endfacet
  facet normal 0 0 -1
    outer loop
      vertex -18.7617 -3.57898 0.0500004
      vertex -18.4999 4.74998 0.0500004
      vertex -18.4999 -4.74998 0.0500004
    endloop
  endfacet
  facet normal 0 0 -1
    outer loop
      vertex -18.7617 -3.57898 0.0500004
      vertex -18.7617 3.57898 0.0500004
      vertex -18.4999 4.74998 0.0500004
    endloop
  endfacet
  facet normal 0 0 -1
    outer loop
      vertex -18.9494 -2.39386 0.0500004
      vertex -18.7617 3.57898 0.0500004
      vertex -18.7617 -3.57898 0.0500004
    endloop
  endfacet
  facet normal 0 0 -1
    outer loop
      vertex -18.9494 -2.39386 0.0500004
      vertex -18.9494 2.39386 0.0500004
      vertex -18.7617 3.57898 0.0500004
    endloop
  endfacet
  facet normal 0 0 -1
    outer loop
      vertex -19.0623 -1.1993 0.0500004
      vertex -18.9494 2.39386 0.0500004
      vertex -18.9494 -2.39386 0.0500004
    endloop
  endfacet
  facet normal 0 0 -1
    outer loop
      vertex -19.0623 -1.1993 0.0500004
      vertex -19.0623 1.1993 0.0500004
      vertex -18.9494 2.39386 0.0500004
    endloop
  endfacet
  facet normal 0 -0 -1
    outer loop
      vertex -19.0623 1.1993 0.0500004
      vertex -19.0623 -1.1993 0.0500004
      vertex -19.1 0 0.0500004
    endloop
  endfacet
  facet normal -0.995563 0.0940925 0
    outer loop
      vertex -19.0623 1.1993 0.0500004
      vertex -18.9494 2.39386 1.35
      vertex -18.9494 2.39386 0.0500004
    endloop
  endfacet
  facet normal -0.995563 0.0940925 0
    outer loop
      vertex -18.9494 2.39386 1.35
      vertex -19.0623 1.1993 0.0500004
      vertex -19.0623 1.1993 1.35
    endloop
  endfacet
  facet normal -0.94089 -0.338713 0
    outer loop
      vertex -18.13 -6 0.0500004
      vertex -18.1652 -5.90222 1.35
      vertex -18.1652 -5.90222 0.0500004
    endloop
  endfacet
  facet normal -0.94089 -0.338713 0
    outer loop
      vertex -18.1652 -5.90222 1.35
      vertex -18.13 -6 0.0500004
      vertex -18.13 -6 1.35
    endloop
  endfacet
  facet normal 0.94089 -0.338713 0
    outer loop
      vertex 18.13 -6 1.35
      vertex 18.1652 -5.90222 0.0500004
      vertex 18.1652 -5.90222 1.35
    endloop
  endfacet
  facet normal 0.94089 -0.338713 0
    outer loop
      vertex 18.1652 -5.90222 0.0500004
      vertex 18.13 -6 1.35
      vertex 18.13 -6 0.0500004
    endloop
  endfacet
  facet normal -0.987689 -0.156433 0
    outer loop
      vertex -4.66586 -0.89006 1.35
      vertex -4.71254 -0.595332 4.2
      vertex -4.71254 -0.595332 1.35
    endloop
  endfacet
  facet normal -0.987689 -0.156433 0
    outer loop
      vertex -4.71254 -0.595332 4.2
      vertex -4.66586 -0.89006 1.35
      vertex -4.66586 -0.89006 4.2
    endloop
  endfacet
  facet normal 0.707107 -0.707107 0
    outer loop
      vertex 3.2516 -3.4626 4.2
      vertex 3.4626 -3.2516 1.35
      vertex 3.4626 -3.2516 4.2
    endloop
  endfacet
  facet normal 0.707107 -0.707107 0
    outer loop
      vertex 3.4626 -3.2516 1.35
      vertex 3.2516 -3.4626 4.2
      vertex 3.2516 -3.4626 1.35
    endloop
  endfacet
  facet normal -0.50904 0.860743 0
    outer loop
      vertex -2.28833 4.16246 1.35
      vertex -2.54518 4.01056 4.2
      vertex -2.28833 4.16246 4.2
    endloop
  endfacet
  facet normal -0.50904 0.860743 0
    outer loop
      vertex -2.54518 4.01056 4.2
      vertex -2.28833 4.16246 1.35
      vertex -2.54518 4.01056 1.35
    endloop
  endfacet
  facet normal -0.50904 -0.860743 0
    outer loop
      vertex -2.54518 -4.01056 1.35
      vertex -2.28833 -4.16246 4.2
      vertex -2.54518 -4.01056 4.2
    endloop
  endfacet
  facet normal -0.50904 -0.860743 -0
    outer loop
      vertex -2.28833 -4.16246 4.2
      vertex -2.54518 -4.01056 1.35
      vertex -2.28833 -4.16246 1.35
    endloop
  endfacet
  facet normal -0.453984 -0.89101 0
    outer loop
      vertex -2.28833 -4.16246 1.35
      vertex -2.02245 -4.29793 4.2
      vertex -2.28833 -4.16246 4.2
    endloop
  endfacet
  facet normal -0.453984 -0.89101 -0
    outer loop
      vertex -2.02245 -4.29793 4.2
      vertex -2.28833 -4.16246 1.35
      vertex -2.02245 -4.29793 1.35
    endloop
  endfacet
  facet normal 0.790155 0.612908 0
    outer loop
      vertex 3.84283 2.79198 4.2
      vertex 3.65994 3.02776 1.35
      vertex 3.65994 3.02776 4.2
    endloop
  endfacet
  facet normal 0.790155 0.612908 0
    outer loop
      vertex 3.65994 3.02776 1.35
      vertex 3.84283 2.79198 4.2
      vertex 3.84283 2.79198 1.35
    endloop
  endfacet
  facet normal 0.156433 -0.987689 0
    outer loop
      vertex 0.595332 -4.71254 1.35
      vertex 0.89006 -4.66586 4.2
      vertex 0.595332 -4.71254 4.2
    endloop
  endfacet
  facet normal 0.156433 -0.987689 0
    outer loop
      vertex 0.89006 -4.66586 4.2
      vertex 0.595332 -4.71254 1.35
      vertex 0.89006 -4.66586 1.35
    endloop
  endfacet
  facet normal 0.995559 0.0941347 0
    outer loop
      vertex 4.74063 0.298255 4.2
      vertex 4.71254 0.595332 1.35
      vertex 4.71254 0.595332 4.2
    endloop
  endfacet
  facet normal 0.995559 0.0941347 0
    outer loop
      vertex 4.71254 0.595332 1.35
      vertex 4.74063 0.298255 4.2
      vertex 4.74063 0.298255 1.35
    endloop
  endfacet
  facet normal -0.987689 0.156433 0
    outer loop
      vertex -4.71254 0.595332 1.35
      vertex -4.66586 0.89006 4.2
      vertex -4.66586 0.89006 1.35
    endloop
  endfacet
  facet normal -0.987689 0.156433 0
    outer loop
      vertex -4.66586 0.89006 4.2
      vertex -4.71254 0.595332 1.35
      vertex -4.71254 0.595332 4.2
    endloop
  endfacet
  facet normal 0.50904 -0.860743 0
    outer loop
      vertex 2.28833 -4.16246 1.35
      vertex 2.54518 -4.01056 4.2
      vertex 2.28833 -4.16246 4.2
    endloop
  endfacet
  facet normal 0.50904 -0.860743 0
    outer loop
      vertex 2.54518 -4.01056 4.2
      vertex 2.28833 -4.16246 1.35
      vertex 2.54518 -4.01056 1.35
    endloop
  endfacet
  facet normal 0.987689 0.156433 0
    outer loop
      vertex 4.71254 0.595332 4.2
      vertex 4.66586 0.89006 1.35
      vertex 4.66586 0.89006 4.2
    endloop
  endfacet
  facet normal 0.987689 0.156433 0
    outer loop
      vertex 4.66586 0.89006 1.35
      vertex 4.71254 0.595332 4.2
      vertex 4.71254 0.595332 1.35
    endloop
  endfacet
  facet normal -0.397148 -0.917754 0
    outer loop
      vertex -2.02245 -4.29793 1.35
      vertex -1.74859 -4.41644 4.2
      vertex -2.02245 -4.29793 4.2
    endloop
  endfacet
  facet normal -0.397148 -0.917754 -0
    outer loop
      vertex -1.74859 -4.41644 4.2
      vertex -2.02245 -4.29793 1.35
      vertex -1.74859 -4.41644 1.35
    endloop
  endfacet
  facet normal 0.397148 0.917754 -0
    outer loop
      vertex 2.02245 4.29793 1.35
      vertex 1.74859 4.41644 4.2
      vertex 2.02245 4.29793 4.2
    endloop
  endfacet
  facet normal 0.397148 0.917754 0
    outer loop
      vertex 1.74859 4.41644 4.2
      vertex 2.02245 4.29793 1.35
      vertex 1.74859 4.41644 1.35
    endloop
  endfacet
  facet normal -0.975921 0.218126 0
    outer loop
      vertex -4.66586 0.89006 1.35
      vertex -4.60077 1.18128 4.2
      vertex -4.60077 1.18128 1.35
    endloop
  endfacet
  facet normal -0.975921 0.218126 0
    outer loop
      vertex -4.60077 1.18128 4.2
      vertex -4.66586 0.89006 1.35
      vertex -4.66586 0.89006 4.2
    endloop
  endfacet
  facet normal -0.453984 0.89101 0
    outer loop
      vertex -2.02245 4.29793 1.35
      vertex -2.28833 4.16246 4.2
      vertex -2.02245 4.29793 4.2
    endloop
  endfacet
  facet normal -0.453984 0.89101 0
    outer loop
      vertex -2.28833 4.16246 4.2
      vertex -2.02245 4.29793 1.35
      vertex -2.28833 4.16246 1.35
    endloop
  endfacet
  facet normal 0.917754 0.397148 0
    outer loop
      vertex 4.41644 1.74859 4.2
      vertex 4.29793 2.02245 1.35
      vertex 4.29793 2.02245 4.2
    endloop
  endfacet
  facet normal 0.917754 0.397148 0
    outer loop
      vertex 4.29793 2.02245 1.35
      vertex 4.41644 1.74859 4.2
      vertex 4.41644 1.74859 1.35
    endloop
  endfacet
  facet normal -0.940881 -0.338738 0
    outer loop
      vertex -4.41644 -1.74859 1.35
      vertex -4.51752 -1.46783 4.2
      vertex -4.51752 -1.46783 1.35
    endloop
  endfacet
  facet normal -0.940881 -0.338738 0
    outer loop
      vertex -4.51752 -1.46783 4.2
      vertex -4.41644 -1.74859 1.35
      vertex -4.41644 -1.74859 4.2
    endloop
  endfacet
  facet normal 0.218126 0.975921 -0
    outer loop
      vertex 1.18128 4.60077 1.35
      vertex 0.89006 4.66586 4.2
      vertex 1.18128 4.60077 4.2
    endloop
  endfacet
  facet normal 0.218126 0.975921 0
    outer loop
      vertex 0.89006 4.66586 4.2
      vertex 1.18128 4.60077 1.35
      vertex 0.89006 4.66586 1.35
    endloop
  endfacet
  facet normal 0.89101 0.453984 0
    outer loop
      vertex 4.29793 2.02245 4.2
      vertex 4.16246 2.28833 1.35
      vertex 4.16246 2.28833 4.2
    endloop
  endfacet
  facet normal 0.89101 0.453984 0
    outer loop
      vertex 4.16246 2.28833 1.35
      vertex 4.29793 2.02245 4.2
      vertex 4.29793 2.02245 1.35
    endloop
  endfacet
  facet normal -0.89101 -0.453984 0
    outer loop
      vertex -4.16246 -2.28833 1.35
      vertex -4.29793 -2.02245 4.2
      vertex -4.29793 -2.02245 1.35
    endloop
  endfacet
  facet normal -0.89101 -0.453984 0
    outer loop
      vertex -4.29793 -2.02245 4.2
      vertex -4.16246 -2.28833 1.35
      vertex -4.16246 -2.28833 4.2
    endloop
  endfacet
  facet normal 0.999507 0.0314006 0
    outer loop
      vertex 4.75 0 4.2
      vertex 4.74063 0.298255 1.35
      vertex 4.74063 0.298255 4.2
    endloop
  endfacet
  facet normal 0.999507 0.0314006 0
    outer loop
      vertex 4.74063 0.298255 1.35
      vertex 4.75 0 4.2
      vertex 4.75 0 1.35
    endloop
  endfacet
  facet normal -0.562095 -0.827073 0
    outer loop
      vertex -2.79198 -3.84283 1.35
      vertex -2.54518 -4.01056 4.2
      vertex -2.79198 -3.84283 4.2
    endloop
  endfacet
  facet normal -0.562095 -0.827073 -0
    outer loop
      vertex -2.54518 -4.01056 4.2
      vertex -2.79198 -3.84283 1.35
      vertex -2.54518 -4.01056 1.35
    endloop
  endfacet
  facet normal -0.995559 0.0941347 0
    outer loop
      vertex -4.74063 0.298255 1.35
      vertex -4.71254 0.595332 4.2
      vertex -4.71254 0.595332 1.35
    endloop
  endfacet
  facet normal -0.995559 0.0941347 0
    outer loop
      vertex -4.71254 0.595332 4.2
      vertex -4.74063 0.298255 1.35
      vertex -4.74063 0.298255 4.2
    endloop
  endfacet
  facet normal 0.827073 0.562095 0
    outer loop
      vertex 4.01056 2.54518 4.2
      vertex 3.84283 2.79198 1.35
      vertex 3.84283 2.79198 4.2
    endloop
  endfacet
  facet normal 0.827073 0.562095 0
    outer loop
      vertex 3.84283 2.79198 1.35
      vertex 4.01056 2.54518 4.2
      vertex 4.01056 2.54518 1.35
    endloop
  endfacet
  facet normal 0.612908 0.790155 -0
    outer loop
      vertex 3.02776 3.65994 1.35
      vertex 2.79198 3.84283 4.2
      vertex 3.02776 3.65994 4.2
    endloop
  endfacet
  facet normal 0.612908 0.790155 0
    outer loop
      vertex 2.79198 3.84283 4.2
      vertex 3.02776 3.65994 1.35
      vertex 2.79198 3.84283 1.35
    endloop
  endfacet
  facet normal 0.917754 -0.397148 0
    outer loop
      vertex 4.29793 -2.02245 4.2
      vertex 4.41644 -1.74859 1.35
      vertex 4.41644 -1.74859 4.2
    endloop
  endfacet
  facet normal 0.917754 -0.397148 0
    outer loop
      vertex 4.41644 -1.74859 1.35
      vertex 4.29793 -2.02245 4.2
      vertex 4.29793 -2.02245 1.35
    endloop
  endfacet
  facet normal -0.156433 -0.987689 0
    outer loop
      vertex -0.89006 -4.66586 1.35
      vertex -0.595332 -4.71254 4.2
      vertex -0.89006 -4.66586 4.2
    endloop
  endfacet
  facet normal -0.156433 -0.987689 -0
    outer loop
      vertex -0.595332 -4.71254 4.2
      vertex -0.89006 -4.66586 1.35
      vertex -0.595332 -4.71254 1.35
    endloop
  endfacet
  facet normal -0.750114 -0.661309 0
    outer loop
      vertex -3.4626 -3.2516 1.35
      vertex -3.65994 -3.02776 4.2
      vertex -3.65994 -3.02776 1.35
    endloop
  endfacet
  facet normal -0.750114 -0.661309 0
    outer loop
      vertex -3.65994 -3.02776 4.2
      vertex -3.4626 -3.2516 1.35
      vertex -3.4626 -3.2516 4.2
    endloop
  endfacet
  facet normal 0.940881 -0.338738 0
    outer loop
      vertex 4.41644 -1.74859 4.2
      vertex 4.51752 -1.46783 1.35
      vertex 4.51752 -1.46783 4.2
    endloop
  endfacet
  facet normal 0.940881 -0.338738 0
    outer loop
      vertex 4.51752 -1.46783 1.35
      vertex 4.41644 -1.74859 4.2
      vertex 4.41644 -1.74859 1.35
    endloop
  endfacet
  facet normal 0.218126 -0.975921 0
    outer loop
      vertex 0.89006 -4.66586 1.35
      vertex 1.18128 -4.60077 4.2
      vertex 0.89006 -4.66586 4.2
    endloop
  endfacet
  facet normal 0.218126 -0.975921 0
    outer loop
      vertex 1.18128 -4.60077 4.2
      vertex 0.89006 -4.66586 1.35
      vertex 1.18128 -4.60077 1.35
    endloop
  endfacet
  facet normal 0.0941347 -0.995559 0
    outer loop
      vertex 0.298255 -4.74063 1.35
      vertex 0.595332 -4.71254 4.2
      vertex 0.298255 -4.74063 4.2
    endloop
  endfacet
  facet normal 0.0941347 -0.995559 0
    outer loop
      vertex 0.595332 -4.71254 4.2
      vertex 0.298255 -4.74063 1.35
      vertex 0.595332 -4.71254 1.35
    endloop
  endfacet
  facet normal 0.960294 0.27899 0
    outer loop
      vertex 4.60077 1.18128 4.2
      vertex 4.51752 1.46783 1.35
      vertex 4.51752 1.46783 4.2
    endloop
  endfacet
  facet normal 0.960294 0.27899 0
    outer loop
      vertex 4.51752 1.46783 1.35
      vertex 4.60077 1.18128 4.2
      vertex 4.60077 1.18128 1.35
    endloop
  endfacet
  facet normal -0.612908 0.790155 0
    outer loop
      vertex -2.79198 3.84283 1.35
      vertex -3.02776 3.65994 4.2
      vertex -2.79198 3.84283 4.2
    endloop
  endfacet
  facet normal -0.612908 0.790155 0
    outer loop
      vertex -3.02776 3.65994 4.2
      vertex -2.79198 3.84283 1.35
      vertex -3.02776 3.65994 1.35
    endloop
  endfacet
  facet normal 0.338738 -0.940881 0
    outer loop
      vertex 1.46783 -4.51752 1.35
      vertex 1.74859 -4.41644 4.2
      vertex 1.46783 -4.51752 4.2
    endloop
  endfacet
  facet normal 0.338738 -0.940881 0
    outer loop
      vertex 1.74859 -4.41644 4.2
      vertex 1.46783 -4.51752 1.35
      vertex 1.74859 -4.41644 1.35
    endloop
  endfacet
  facet normal 0.661309 0.750114 -0
    outer loop
      vertex 3.2516 3.4626 1.35
      vertex 3.02776 3.65994 4.2
      vertex 3.2516 3.4626 4.2
    endloop
  endfacet
  facet normal 0.661309 0.750114 0
    outer loop
      vertex 3.02776 3.65994 4.2
      vertex 3.2516 3.4626 1.35
      vertex 3.02776 3.65994 1.35
    endloop
  endfacet
  facet normal 0.50904 0.860743 -0
    outer loop
      vertex 2.54518 4.01056 1.35
      vertex 2.28833 4.16246 4.2
      vertex 2.54518 4.01056 4.2
    endloop
  endfacet
  facet normal 0.50904 0.860743 0
    outer loop
      vertex 2.28833 4.16246 4.2
      vertex 2.54518 4.01056 1.35
      vertex 2.28833 4.16246 1.35
    endloop
  endfacet
  facet normal 0.975921 0.218126 0
    outer loop
      vertex 4.66586 0.89006 4.2
      vertex 4.60077 1.18128 1.35
      vertex 4.60077 1.18128 4.2
    endloop
  endfacet
  facet normal 0.975921 0.218126 0
    outer loop
      vertex 4.60077 1.18128 1.35
      vertex 4.66586 0.89006 4.2
      vertex 4.66586 0.89006 1.35
    endloop
  endfacet
  facet normal 0.27899 -0.960294 0
    outer loop
      vertex 1.18128 -4.60077 1.35
      vertex 1.46783 -4.51752 4.2
      vertex 1.18128 -4.60077 4.2
    endloop
  endfacet
  facet normal 0.27899 -0.960294 0
    outer loop
      vertex 1.46783 -4.51752 4.2
      vertex 1.18128 -4.60077 1.35
      vertex 1.46783 -4.51752 1.35
    endloop
  endfacet
  facet normal -0.975921 -0.218126 0
    outer loop
      vertex -4.60077 -1.18128 1.35
      vertex -4.66586 -0.89006 4.2
      vertex -4.66586 -0.89006 1.35
    endloop
  endfacet
  facet normal -0.975921 -0.218126 0
    outer loop
      vertex -4.66586 -0.89006 4.2
      vertex -4.60077 -1.18128 1.35
      vertex -4.60077 -1.18128 4.2
    endloop
  endfacet
  facet normal 0.562095 0.827073 -0
    outer loop
      vertex 2.79198 3.84283 1.35
      vertex 2.54518 4.01056 4.2
      vertex 2.79198 3.84283 4.2
    endloop
  endfacet
  facet normal 0.562095 0.827073 0
    outer loop
      vertex 2.54518 4.01056 4.2
      vertex 2.79198 3.84283 1.35
      vertex 2.54518 4.01056 1.35
    endloop
  endfacet
  facet normal -0.707107 -0.707107 0
    outer loop
      vertex -3.2516 -3.4626 1.35
      vertex -3.4626 -3.2516 4.2
      vertex -3.4626 -3.2516 1.35
    endloop
  endfacet
  facet normal -0.707107 -0.707107 0
    outer loop
      vertex -3.4626 -3.2516 4.2
      vertex -3.2516 -3.4626 1.35
      vertex -3.2516 -3.4626 4.2
    endloop
  endfacet
  facet normal 0.987689 -0.156433 0
    outer loop
      vertex 4.66586 -0.89006 4.2
      vertex 4.71254 -0.595332 1.35
      vertex 4.71254 -0.595332 4.2
    endloop
  endfacet
  facet normal 0.987689 -0.156433 0
    outer loop
      vertex 4.71254 -0.595332 1.35
      vertex 4.66586 -0.89006 4.2
      vertex 4.66586 -0.89006 1.35
    endloop
  endfacet
  facet normal 0.397148 -0.917754 0
    outer loop
      vertex 1.74859 -4.41644 1.35
      vertex 2.02245 -4.29793 4.2
      vertex 1.74859 -4.41644 4.2
    endloop
  endfacet
  facet normal 0.397148 -0.917754 0
    outer loop
      vertex 2.02245 -4.29793 4.2
      vertex 1.74859 -4.41644 1.35
      vertex 2.02245 -4.29793 1.35
    endloop
  endfacet
  facet normal 0.940881 0.338738 0
    outer loop
      vertex 4.51752 1.46783 4.2
      vertex 4.41644 1.74859 1.35
      vertex 4.41644 1.74859 4.2
    endloop
  endfacet
  facet normal 0.940881 0.338738 0
    outer loop
      vertex 4.41644 1.74859 1.35
      vertex 4.51752 1.46783 4.2
      vertex 4.51752 1.46783 1.35
    endloop
  endfacet
  facet normal 0.860743 0.50904 0
    outer loop
      vertex 4.16246 2.28833 4.2
      vertex 4.01056 2.54518 1.35
      vertex 4.01056 2.54518 4.2
    endloop
  endfacet
  facet normal 0.860743 0.50904 0
    outer loop
      vertex 4.01056 2.54518 1.35
      vertex 4.16246 2.28833 4.2
      vertex 4.16246 2.28833 1.35
    endloop
  endfacet
  facet normal -0.156433 0.987689 0
    outer loop
      vertex -0.595332 4.71254 1.35
      vertex -0.89006 4.66586 4.2
      vertex -0.595332 4.71254 4.2
    endloop
  endfacet
  facet normal -0.156433 0.987689 0
    outer loop
      vertex -0.89006 4.66586 4.2
      vertex -0.595332 4.71254 1.35
      vertex -0.89006 4.66586 1.35
    endloop
  endfacet
  facet normal 0.975921 -0.218126 0
    outer loop
      vertex 4.60077 -1.18128 4.2
      vertex 4.66586 -0.89006 1.35
      vertex 4.66586 -0.89006 4.2
    endloop
  endfacet
  facet normal 0.975921 -0.218126 0
    outer loop
      vertex 4.66586 -0.89006 1.35
      vertex 4.60077 -1.18128 4.2
      vertex 4.60077 -1.18128 1.35
    endloop
  endfacet
  facet normal -0.218126 0.975921 0
    outer loop
      vertex -0.89006 4.66586 1.35
      vertex -1.18128 4.60077 4.2
      vertex -0.89006 4.66586 4.2
    endloop
  endfacet
  facet normal -0.218126 0.975921 0
    outer loop
      vertex -1.18128 4.60077 4.2
      vertex -0.89006 4.66586 1.35
      vertex -1.18128 4.60077 1.35
    endloop
  endfacet
  facet normal 0.156433 0.987689 -0
    outer loop
      vertex 0.89006 4.66586 1.35
      vertex 0.595332 4.71254 4.2
      vertex 0.89006 4.66586 4.2
    endloop
  endfacet
  facet normal 0.156433 0.987689 0
    outer loop
      vertex 0.595332 4.71254 4.2
      vertex 0.89006 4.66586 1.35
      vertex 0.595332 4.71254 1.35
    endloop
  endfacet
  facet normal -0.790155 -0.612908 0
    outer loop
      vertex -3.65994 -3.02776 1.35
      vertex -3.84283 -2.79198 4.2
      vertex -3.84283 -2.79198 1.35
    endloop
  endfacet
  facet normal -0.790155 -0.612908 0
    outer loop
      vertex -3.84283 -2.79198 4.2
      vertex -3.65994 -3.02776 1.35
      vertex -3.65994 -3.02776 4.2
    endloop
  endfacet
  facet normal -0.999507 -0.0314006 0
    outer loop
      vertex -4.74063 -0.298255 1.35
      vertex -4.75 0 4.2
      vertex -4.75 0 1.35
    endloop
  endfacet
  facet normal -0.999507 -0.0314006 0
    outer loop
      vertex -4.75 0 4.2
      vertex -4.74063 -0.298255 1.35
      vertex -4.74063 -0.298255 4.2
    endloop
  endfacet
  facet normal -0.0314006 0.999507 0
    outer loop
      vertex 0 4.75 1.35
      vertex -0.298255 4.74063 4.2
      vertex 0 4.75 4.2
    endloop
  endfacet
  facet normal -0.0314006 0.999507 0
    outer loop
      vertex -0.298255 4.74063 4.2
      vertex 0 4.75 1.35
      vertex -0.298255 4.74063 1.35
    endloop
  endfacet
  facet normal -0.960294 0.27899 0
    outer loop
      vertex -4.60077 1.18128 1.35
      vertex -4.51752 1.46783 4.2
      vertex -4.51752 1.46783 1.35
    endloop
  endfacet
  facet normal -0.960294 0.27899 0
    outer loop
      vertex -4.51752 1.46783 4.2
      vertex -4.60077 1.18128 1.35
      vertex -4.60077 1.18128 4.2
    endloop
  endfacet
  facet normal -0.827073 -0.562095 0
    outer loop
      vertex -3.84283 -2.79198 1.35
      vertex -4.01056 -2.54518 4.2
      vertex -4.01056 -2.54518 1.35
    endloop
  endfacet
  facet normal -0.827073 -0.562095 0
    outer loop
      vertex -4.01056 -2.54518 4.2
      vertex -3.84283 -2.79198 1.35
      vertex -3.84283 -2.79198 4.2
    endloop
  endfacet
  facet normal -0.707107 0.707107 0
    outer loop
      vertex -3.4626 3.2516 1.35
      vertex -3.2516 3.4626 4.2
      vertex -3.2516 3.4626 1.35
    endloop
  endfacet
  facet normal -0.707107 0.707107 0
    outer loop
      vertex -3.2516 3.4626 4.2
      vertex -3.4626 3.2516 1.35
      vertex -3.4626 3.2516 4.2
    endloop
  endfacet
  facet normal -0.0941347 0.995559 0
    outer loop
      vertex -0.298255 4.74063 1.35
      vertex -0.595332 4.71254 4.2
      vertex -0.298255 4.74063 4.2
    endloop
  endfacet
  facet normal -0.0941347 0.995559 0
    outer loop
      vertex -0.595332 4.71254 4.2
      vertex -0.298255 4.74063 1.35
      vertex -0.595332 4.71254 1.35
    endloop
  endfacet
  facet normal -0.218126 -0.975921 0
    outer loop
      vertex -1.18128 -4.60077 1.35
      vertex -0.89006 -4.66586 4.2
      vertex -1.18128 -4.60077 4.2
    endloop
  endfacet
  facet normal -0.218126 -0.975921 -0
    outer loop
      vertex -0.89006 -4.66586 4.2
      vertex -1.18128 -4.60077 1.35
      vertex -0.89006 -4.66586 1.35
    endloop
  endfacet
  facet normal 0.995559 -0.0941347 0
    outer loop
      vertex 4.71254 -0.595332 4.2
      vertex 4.74063 -0.298255 1.35
      vertex 4.74063 -0.298255 4.2
    endloop
  endfacet
  facet normal 0.995559 -0.0941347 0
    outer loop
      vertex 4.74063 -0.298255 1.35
      vertex 4.71254 -0.595332 4.2
      vertex 4.71254 -0.595332 1.35
    endloop
  endfacet
  facet normal -0.999507 0.0314006 0
    outer loop
      vertex -4.75 0 1.35
      vertex -4.74063 0.298255 4.2
      vertex -4.74063 0.298255 1.35
    endloop
  endfacet
  facet normal -0.999507 0.0314006 0
    outer loop
      vertex -4.74063 0.298255 4.2
      vertex -4.75 0 1.35
      vertex -4.75 0 4.2
    endloop
  endfacet
  facet normal -0.562095 0.827073 0
    outer loop
      vertex -2.54518 4.01056 1.35
      vertex -2.79198 3.84283 4.2
      vertex -2.54518 4.01056 4.2
    endloop
  endfacet
  facet normal -0.562095 0.827073 0
    outer loop
      vertex -2.79198 3.84283 4.2
      vertex -2.54518 4.01056 1.35
      vertex -2.79198 3.84283 1.35
    endloop
  endfacet
  facet normal -0.661309 0.750114 0
    outer loop
      vertex -3.02776 3.65994 1.35
      vertex -3.2516 3.4626 4.2
      vertex -3.02776 3.65994 4.2
    endloop
  endfacet
  facet normal -0.661309 0.750114 0
    outer loop
      vertex -3.2516 3.4626 4.2
      vertex -3.02776 3.65994 1.35
      vertex -3.2516 3.4626 1.35
    endloop
  endfacet
  facet normal -0.397148 0.917754 0
    outer loop
      vertex -1.74859 4.41644 1.35
      vertex -2.02245 4.29793 4.2
      vertex -1.74859 4.41644 4.2
    endloop
  endfacet
  facet normal -0.397148 0.917754 0
    outer loop
      vertex -2.02245 4.29793 4.2
      vertex -1.74859 4.41644 1.35
      vertex -2.02245 4.29793 1.35
    endloop
  endfacet
  facet normal 0.27899 0.960294 -0
    outer loop
      vertex 1.46783 4.51752 1.35
      vertex 1.18128 4.60077 4.2
      vertex 1.46783 4.51752 4.2
    endloop
  endfacet
  facet normal 0.27899 0.960294 0
    outer loop
      vertex 1.18128 4.60077 4.2
      vertex 1.46783 4.51752 1.35
      vertex 1.18128 4.60077 1.35
    endloop
  endfacet
  facet normal 0.89101 -0.453984 0
    outer loop
      vertex 4.16246 -2.28833 4.2
      vertex 4.29793 -2.02245 1.35
      vertex 4.29793 -2.02245 4.2
    endloop
  endfacet
  facet normal 0.89101 -0.453984 0
    outer loop
      vertex 4.29793 -2.02245 1.35
      vertex 4.16246 -2.28833 4.2
      vertex 4.16246 -2.28833 1.35
    endloop
  endfacet
  facet normal 0.999507 -0.0314006 0
    outer loop
      vertex 4.74063 -0.298255 4.2
      vertex 4.75 0 1.35
      vertex 4.75 0 4.2
    endloop
  endfacet
  facet normal 0.999507 -0.0314006 0
    outer loop
      vertex 4.75 0 1.35
      vertex 4.74063 -0.298255 4.2
      vertex 4.74063 -0.298255 1.35
    endloop
  endfacet
  facet normal -0.960294 -0.27899 0
    outer loop
      vertex -4.51752 -1.46783 1.35
      vertex -4.60077 -1.18128 4.2
      vertex -4.60077 -1.18128 1.35
    endloop
  endfacet
  facet normal -0.960294 -0.27899 0
    outer loop
      vertex -4.60077 -1.18128 4.2
      vertex -4.51752 -1.46783 1.35
      vertex -4.51752 -1.46783 4.2
    endloop
  endfacet
  facet normal -0.0314006 -0.999507 0
    outer loop
      vertex -0.298255 -4.74063 1.35
      vertex 0 -4.75 4.2
      vertex -0.298255 -4.74063 4.2
    endloop
  endfacet
  facet normal -0.0314006 -0.999507 -0
    outer loop
      vertex 0 -4.75 4.2
      vertex -0.298255 -4.74063 1.35
      vertex 0 -4.75 1.35
    endloop
  endfacet
  facet normal 0.827073 -0.562095 0
    outer loop
      vertex 3.84283 -2.79198 4.2
      vertex 4.01056 -2.54518 1.35
      vertex 4.01056 -2.54518 4.2
    endloop
  endfacet
  facet normal 0.827073 -0.562095 0
    outer loop
      vertex 4.01056 -2.54518 1.35
      vertex 3.84283 -2.79198 4.2
      vertex 3.84283 -2.79198 1.35
    endloop
  endfacet
  facet normal 0.860743 -0.50904 0
    outer loop
      vertex 4.01056 -2.54518 4.2
      vertex 4.16246 -2.28833 1.35
      vertex 4.16246 -2.28833 4.2
    endloop
  endfacet
  facet normal 0.860743 -0.50904 0
    outer loop
      vertex 4.16246 -2.28833 1.35
      vertex 4.01056 -2.54518 4.2
      vertex 4.01056 -2.54518 1.35
    endloop
  endfacet
  facet normal 0.707107 0.707107 0
    outer loop
      vertex 3.4626 3.2516 4.2
      vertex 3.2516 3.4626 1.35
      vertex 3.2516 3.4626 4.2
    endloop
  endfacet
  facet normal 0.707107 0.707107 0
    outer loop
      vertex 3.2516 3.4626 1.35
      vertex 3.4626 3.2516 4.2
      vertex 3.4626 3.2516 1.35
    endloop
  endfacet
  facet normal 0.0314006 -0.999507 0
    outer loop
      vertex 0 -4.75 1.35
      vertex 0.298255 -4.74063 4.2
      vertex 0 -4.75 4.2
    endloop
  endfacet
  facet normal 0.0314006 -0.999507 0
    outer loop
      vertex 0.298255 -4.74063 4.2
      vertex 0 -4.75 1.35
      vertex 0.298255 -4.74063 1.35
    endloop
  endfacet
  facet normal 0.453984 0.89101 -0
    outer loop
      vertex 2.28833 4.16246 1.35
      vertex 2.02245 4.29793 4.2
      vertex 2.28833 4.16246 4.2
    endloop
  endfacet
  facet normal 0.453984 0.89101 0
    outer loop
      vertex 2.02245 4.29793 4.2
      vertex 2.28833 4.16246 1.35
      vertex 2.02245 4.29793 1.35
    endloop
  endfacet
  facet normal -0.27899 0.960294 0
    outer loop
      vertex -1.18128 4.60077 1.35
      vertex -1.46783 4.51752 4.2
      vertex -1.18128 4.60077 4.2
    endloop
  endfacet
  facet normal -0.27899 0.960294 0
    outer loop
      vertex -1.46783 4.51752 4.2
      vertex -1.18128 4.60077 1.35
      vertex -1.46783 4.51752 1.35
    endloop
  endfacet
  facet normal -0.917754 0.397148 0
    outer loop
      vertex -4.41644 1.74859 1.35
      vertex -4.29793 2.02245 4.2
      vertex -4.29793 2.02245 1.35
    endloop
  endfacet
  facet normal -0.917754 0.397148 0
    outer loop
      vertex -4.29793 2.02245 4.2
      vertex -4.41644 1.74859 1.35
      vertex -4.41644 1.74859 4.2
    endloop
  endfacet
  facet normal 0.562095 -0.827073 0
    outer loop
      vertex 2.54518 -4.01056 1.35
      vertex 2.79198 -3.84283 4.2
      vertex 2.54518 -4.01056 4.2
    endloop
  endfacet
  facet normal 0.562095 -0.827073 0
    outer loop
      vertex 2.79198 -3.84283 4.2
      vertex 2.54518 -4.01056 1.35
      vertex 2.79198 -3.84283 1.35
    endloop
  endfacet
  facet normal -0.827073 0.562095 0
    outer loop
      vertex -4.01056 2.54518 1.35
      vertex -3.84283 2.79198 4.2
      vertex -3.84283 2.79198 1.35
    endloop
  endfacet
  facet normal -0.827073 0.562095 0
    outer loop
      vertex -3.84283 2.79198 4.2
      vertex -4.01056 2.54518 1.35
      vertex -4.01056 2.54518 4.2
    endloop
  endfacet
  facet normal -0.750114 0.661309 0
    outer loop
      vertex -3.65994 3.02776 1.35
      vertex -3.4626 3.2516 4.2
      vertex -3.4626 3.2516 1.35
    endloop
  endfacet
  facet normal -0.750114 0.661309 0
    outer loop
      vertex -3.4626 3.2516 4.2
      vertex -3.65994 3.02776 1.35
      vertex -3.65994 3.02776 4.2
    endloop
  endfacet
  facet normal -0.89101 0.453984 0
    outer loop
      vertex -4.29793 2.02245 1.35
      vertex -4.16246 2.28833 4.2
      vertex -4.16246 2.28833 1.35
    endloop
  endfacet
  facet normal -0.89101 0.453984 0
    outer loop
      vertex -4.16246 2.28833 4.2
      vertex -4.29793 2.02245 1.35
      vertex -4.29793 2.02245 4.2
    endloop
  endfacet
  facet normal 0.750114 0.661309 0
    outer loop
      vertex 3.65994 3.02776 4.2
      vertex 3.4626 3.2516 1.35
      vertex 3.4626 3.2516 4.2
    endloop
  endfacet
  facet normal 0.750114 0.661309 0
    outer loop
      vertex 3.4626 3.2516 1.35
      vertex 3.65994 3.02776 4.2
      vertex 3.65994 3.02776 1.35
    endloop
  endfacet
  facet normal -0.338738 0.940881 0
    outer loop
      vertex -1.46783 4.51752 1.35
      vertex -1.74859 4.41644 4.2
      vertex -1.46783 4.51752 4.2
    endloop
  endfacet
  facet normal -0.338738 0.940881 0
    outer loop
      vertex -1.74859 4.41644 4.2
      vertex -1.46783 4.51752 1.35
      vertex -1.74859 4.41644 1.35
    endloop
  endfacet
  facet normal -0.860743 -0.50904 0
    outer loop
      vertex -4.01056 -2.54518 1.35
      vertex -4.16246 -2.28833 4.2
      vertex -4.16246 -2.28833 1.35
    endloop
  endfacet
  facet normal -0.860743 -0.50904 0
    outer loop
      vertex -4.16246 -2.28833 4.2
      vertex -4.01056 -2.54518 1.35
      vertex -4.01056 -2.54518 4.2
    endloop
  endfacet
  facet normal -0.27899 -0.960294 0
    outer loop
      vertex -1.46783 -4.51752 1.35
      vertex -1.18128 -4.60077 4.2
      vertex -1.46783 -4.51752 4.2
    endloop
  endfacet
  facet normal -0.27899 -0.960294 -0
    outer loop
      vertex -1.18128 -4.60077 4.2
      vertex -1.46783 -4.51752 1.35
      vertex -1.18128 -4.60077 1.35
    endloop
  endfacet
  facet normal -0.338738 -0.940881 0
    outer loop
      vertex -1.74859 -4.41644 1.35
      vertex -1.46783 -4.51752 4.2
      vertex -1.74859 -4.41644 4.2
    endloop
  endfacet
  facet normal -0.338738 -0.940881 -0
    outer loop
      vertex -1.46783 -4.51752 4.2
      vertex -1.74859 -4.41644 1.35
      vertex -1.46783 -4.51752 1.35
    endloop
  endfacet
  facet normal -0.940881 0.338738 0
    outer loop
      vertex -4.51752 1.46783 1.35
      vertex -4.41644 1.74859 4.2
      vertex -4.41644 1.74859 1.35
    endloop
  endfacet
  facet normal -0.940881 0.338738 0
    outer loop
      vertex -4.41644 1.74859 4.2
      vertex -4.51752 1.46783 1.35
      vertex -4.51752 1.46783 4.2
    endloop
  endfacet
  facet normal -0.0941347 -0.995559 0
    outer loop
      vertex -0.595332 -4.71254 1.35
      vertex -0.298255 -4.74063 4.2
      vertex -0.595332 -4.71254 4.2
    endloop
  endfacet
  facet normal -0.0941347 -0.995559 -0
    outer loop
      vertex -0.298255 -4.74063 4.2
      vertex -0.595332 -4.71254 1.35
      vertex -0.298255 -4.74063 1.35
    endloop
  endfacet
  facet normal -0.790155 0.612908 0
    outer loop
      vertex -3.84283 2.79198 1.35
      vertex -3.65994 3.02776 4.2
      vertex -3.65994 3.02776 1.35
    endloop
  endfacet
  facet normal -0.790155 0.612908 0
    outer loop
      vertex -3.65994 3.02776 4.2
      vertex -3.84283 2.79198 1.35
      vertex -3.84283 2.79198 4.2
    endloop
  endfacet
  facet normal 0.790155 -0.612908 0
    outer loop
      vertex 3.65994 -3.02776 4.2
      vertex 3.84283 -2.79198 1.35
      vertex 3.84283 -2.79198 4.2
    endloop
  endfacet
  facet normal 0.790155 -0.612908 0
    outer loop
      vertex 3.84283 -2.79198 1.35
      vertex 3.65994 -3.02776 4.2
      vertex 3.65994 -3.02776 1.35
    endloop
  endfacet
  facet normal 0.612908 -0.790155 0
    outer loop
      vertex 2.79198 -3.84283 1.35
      vertex 3.02776 -3.65994 4.2
      vertex 2.79198 -3.84283 4.2
    endloop
  endfacet
  facet normal 0.612908 -0.790155 0
    outer loop
      vertex 3.02776 -3.65994 4.2
      vertex 2.79198 -3.84283 1.35
      vertex 3.02776 -3.65994 1.35
    endloop
  endfacet
  facet normal -0.995559 -0.0941347 0
    outer loop
      vertex -4.71254 -0.595332 1.35
      vertex -4.74063 -0.298255 4.2
      vertex -4.74063 -0.298255 1.35
    endloop
  endfacet
  facet normal -0.995559 -0.0941347 0
    outer loop
      vertex -4.74063 -0.298255 4.2
      vertex -4.71254 -0.595332 1.35
      vertex -4.71254 -0.595332 4.2
    endloop
  endfacet
  facet normal 0.750114 -0.661309 0
    outer loop
      vertex 3.4626 -3.2516 4.2
      vertex 3.65994 -3.02776 1.35
      vertex 3.65994 -3.02776 4.2
    endloop
  endfacet
  facet normal 0.750114 -0.661309 0
    outer loop
      vertex 3.65994 -3.02776 1.35
      vertex 3.4626 -3.2516 4.2
      vertex 3.4626 -3.2516 1.35
    endloop
  endfacet
  facet normal 0.960294 -0.27899 0
    outer loop
      vertex 4.51752 -1.46783 4.2
      vertex 4.60077 -1.18128 1.35
      vertex 4.60077 -1.18128 4.2
    endloop
  endfacet
  facet normal 0.960294 -0.27899 0
    outer loop
      vertex 4.60077 -1.18128 1.35
      vertex 4.51752 -1.46783 4.2
      vertex 4.51752 -1.46783 1.35
    endloop
  endfacet
  facet normal 0.453984 -0.89101 0
    outer loop
      vertex 2.02245 -4.29793 1.35
      vertex 2.28833 -4.16246 4.2
      vertex 2.02245 -4.29793 4.2
    endloop
  endfacet
  facet normal 0.453984 -0.89101 0
    outer loop
      vertex 2.28833 -4.16246 4.2
      vertex 2.02245 -4.29793 1.35
      vertex 2.28833 -4.16246 1.35
    endloop
  endfacet
  facet normal -0.860743 0.50904 0
    outer loop
      vertex -4.16246 2.28833 1.35
      vertex -4.01056 2.54518 4.2
      vertex -4.01056 2.54518 1.35
    endloop
  endfacet
  facet normal -0.860743 0.50904 0
    outer loop
      vertex -4.01056 2.54518 4.2
      vertex -4.16246 2.28833 1.35
      vertex -4.16246 2.28833 4.2
    endloop
  endfacet
  facet normal -0.612908 -0.790155 0
    outer loop
      vertex -3.02776 -3.65994 1.35
      vertex -2.79198 -3.84283 4.2
      vertex -3.02776 -3.65994 4.2
    endloop
  endfacet
  facet normal -0.612908 -0.790155 -0
    outer loop
      vertex -2.79198 -3.84283 4.2
      vertex -3.02776 -3.65994 1.35
      vertex -2.79198 -3.84283 1.35
    endloop
  endfacet
  facet normal 0.0941347 0.995559 -0
    outer loop
      vertex 0.595332 4.71254 1.35
      vertex 0.298255 4.74063 4.2
      vertex 0.595332 4.71254 4.2
    endloop
  endfacet
  facet normal 0.0941347 0.995559 0
    outer loop
      vertex 0.298255 4.74063 4.2
      vertex 0.595332 4.71254 1.35
      vertex 0.298255 4.74063 1.35
    endloop
  endfacet
  facet normal 0.0314006 0.999507 -0
    outer loop
      vertex 0.298255 4.74063 1.35
      vertex 0 4.75 4.2
      vertex 0.298255 4.74063 4.2
    endloop
  endfacet
  facet normal 0.0314006 0.999507 0
    outer loop
      vertex 0 4.75 4.2
      vertex 0.298255 4.74063 1.35
      vertex 0 4.75 1.35
    endloop
  endfacet
  facet normal 0.338738 0.940881 -0
    outer loop
      vertex 1.74859 4.41644 1.35
      vertex 1.46783 4.51752 4.2
      vertex 1.74859 4.41644 4.2
    endloop
  endfacet
  facet normal 0.338738 0.940881 0
    outer loop
      vertex 1.46783 4.51752 4.2
      vertex 1.74859 4.41644 1.35
      vertex 1.46783 4.51752 1.35
    endloop
  endfacet
  facet normal 0.661309 -0.750114 0
    outer loop
      vertex 3.02776 -3.65994 1.35
      vertex 3.2516 -3.4626 4.2
      vertex 3.02776 -3.65994 4.2
    endloop
  endfacet
  facet normal 0.661309 -0.750114 0
    outer loop
      vertex 3.2516 -3.4626 4.2
      vertex 3.02776 -3.65994 1.35
      vertex 3.2516 -3.4626 1.35
    endloop
  endfacet
  facet normal 0 0 1
    outer loop
      vertex 4.74063 0.298255 4.2
      vertex 4.74063 -0.298255 4.2
      vertex 4.75 0 4.2
    endloop
  endfacet
  facet normal 0 0 1
    outer loop
      vertex 4.71254 0.595332 4.2
      vertex 4.74063 -0.298255 4.2
      vertex 4.74063 0.298255 4.2
    endloop
  endfacet
  facet normal 0 0 1
    outer loop
      vertex 4.71254 0.595332 4.2
      vertex 4.71254 -0.595332 4.2
      vertex 4.74063 -0.298255 4.2
    endloop
  endfacet
  facet normal 0 0 1
    outer loop
      vertex 4.66586 0.89006 4.2
      vertex 4.71254 -0.595332 4.2
      vertex 4.71254 0.595332 4.2
    endloop
  endfacet
  facet normal 0 0 1
    outer loop
      vertex 4.66586 0.89006 4.2
      vertex 4.66586 -0.89006 4.2
      vertex 4.71254 -0.595332 4.2
    endloop
  endfacet
  facet normal 0 0 1
    outer loop
      vertex 4.60077 1.18128 4.2
      vertex 4.66586 -0.89006 4.2
      vertex 4.66586 0.89006 4.2
    endloop
  endfacet
  facet normal 0 0 1
    outer loop
      vertex 4.60077 1.18128 4.2
      vertex 4.60077 -1.18128 4.2
      vertex 4.66586 -0.89006 4.2
    endloop
  endfacet
  facet normal 0 0 1
    outer loop
      vertex 4.51752 1.46783 4.2
      vertex 4.60077 -1.18128 4.2
      vertex 4.60077 1.18128 4.2
    endloop
  endfacet
  facet normal 0 0 1
    outer loop
      vertex 4.51752 1.46783 4.2
      vertex 4.51752 -1.46783 4.2
      vertex 4.60077 -1.18128 4.2
    endloop
  endfacet
  facet normal 0 0 1
    outer loop
      vertex 4.41644 1.74859 4.2
      vertex 4.51752 -1.46783 4.2
      vertex 4.51752 1.46783 4.2
    endloop
  endfacet
  facet normal 0 0 1
    outer loop
      vertex 4.41644 1.74859 4.2
      vertex 4.41644 -1.74859 4.2
      vertex 4.51752 -1.46783 4.2
    endloop
  endfacet
  facet normal 0 0 1
    outer loop
      vertex 4.29793 2.02245 4.2
      vertex 4.41644 -1.74859 4.2
      vertex 4.41644 1.74859 4.2
    endloop
  endfacet
  facet normal 0 0 1
    outer loop
      vertex 4.29793 2.02245 4.2
      vertex 4.29793 -2.02245 4.2
      vertex 4.41644 -1.74859 4.2
    endloop
  endfacet
  facet normal 0 0 1
    outer loop
      vertex 4.16246 2.28833 4.2
      vertex 4.29793 -2.02245 4.2
      vertex 4.29793 2.02245 4.2
    endloop
  endfacet
  facet normal 0 0 1
    outer loop
      vertex 4.16246 2.28833 4.2
      vertex 4.16246 -2.28833 4.2
      vertex 4.29793 -2.02245 4.2
    endloop
  endfacet
  facet normal 0 0 1
    outer loop
      vertex 4.01056 2.54518 4.2
      vertex 4.16246 -2.28833 4.2
      vertex 4.16246 2.28833 4.2
    endloop
  endfacet
  facet normal 0 0 1
    outer loop
      vertex 4.01056 2.54518 4.2
      vertex 4.01056 -2.54518 4.2
      vertex 4.16246 -2.28833 4.2
    endloop
  endfacet
  facet normal 0 0 1
    outer loop
      vertex 3.84283 2.79198 4.2
      vertex 4.01056 -2.54518 4.2
      vertex 4.01056 2.54518 4.2
    endloop
  endfacet
  facet normal 0 0 1
    outer loop
      vertex 3.84283 2.79198 4.2
      vertex 3.84283 -2.79198 4.2
      vertex 4.01056 -2.54518 4.2
    endloop
  endfacet
  facet normal 0 0 1
    outer loop
      vertex 3.65994 3.02776 4.2
      vertex 3.84283 -2.79198 4.2
      vertex 3.84283 2.79198 4.2
    endloop
  endfacet
  facet normal 0 0 1
    outer loop
      vertex 3.65994 3.02776 4.2
      vertex 3.65994 -3.02776 4.2
      vertex 3.84283 -2.79198 4.2
    endloop
  endfacet
  facet normal 0 0 1
    outer loop
      vertex 3.4626 3.2516 4.2
      vertex 3.65994 -3.02776 4.2
      vertex 3.65994 3.02776 4.2
    endloop
  endfacet
  facet normal 0 0 1
    outer loop
      vertex 3.4626 3.2516 4.2
      vertex 3.4626 -3.2516 4.2
      vertex 3.65994 -3.02776 4.2
    endloop
  endfacet
  facet normal 0 0 1
    outer loop
      vertex 3.2516 3.4626 4.2
      vertex 3.4626 -3.2516 4.2
      vertex 3.4626 3.2516 4.2
    endloop
  endfacet
  facet normal 0 0 1
    outer loop
      vertex 3.2516 3.4626 4.2
      vertex 3.2516 -3.4626 4.2
      vertex 3.4626 -3.2516 4.2
    endloop
  endfacet
  facet normal 0 0 1
    outer loop
      vertex 3.02776 3.65994 4.2
      vertex 3.2516 -3.4626 4.2
      vertex 3.2516 3.4626 4.2
    endloop
  endfacet
  facet normal 0 0 1
    outer loop
      vertex 3.02776 3.65994 4.2
      vertex 3.02776 -3.65994 4.2
      vertex 3.2516 -3.4626 4.2
    endloop
  endfacet
  facet normal 0 0 1
    outer loop
      vertex 2.79198 3.84283 4.2
      vertex 3.02776 -3.65994 4.2
      vertex 3.02776 3.65994 4.2
    endloop
  endfacet
  facet normal 0 0 1
    outer loop
      vertex 2.79198 3.84283 4.2
      vertex 2.79198 -3.84283 4.2
      vertex 3.02776 -3.65994 4.2
    endloop
  endfacet
  facet normal 0 0 1
    outer loop
      vertex 2.54518 4.01056 4.2
      vertex 2.79198 -3.84283 4.2
      vertex 2.79198 3.84283 4.2
    endloop
  endfacet
  facet normal 0 0 1
    outer loop
      vertex 2.54518 4.01056 4.2
      vertex 2.54518 -4.01056 4.2
      vertex 2.79198 -3.84283 4.2
    endloop
  endfacet
  facet normal 0 0 1
    outer loop
      vertex 2.28833 4.16246 4.2
      vertex 2.54518 -4.01056 4.2
      vertex 2.54518 4.01056 4.2
    endloop
  endfacet
  facet normal 0 0 1
    outer loop
      vertex 2.28833 4.16246 4.2
      vertex 2.28833 -4.16246 4.2
      vertex 2.54518 -4.01056 4.2
    endloop
  endfacet
  facet normal 0 0 1
    outer loop
      vertex 2.02245 4.29793 4.2
      vertex 2.28833 -4.16246 4.2
      vertex 2.28833 4.16246 4.2
    endloop
  endfacet
  facet normal 0 0 1
    outer loop
      vertex 2.02245 4.29793 4.2
      vertex 2.02245 -4.29793 4.2
      vertex 2.28833 -4.16246 4.2
    endloop
  endfacet
  facet normal 0 0 1
    outer loop
      vertex 1.74859 4.41644 4.2
      vertex 2.02245 -4.29793 4.2
      vertex 2.02245 4.29793 4.2
    endloop
  endfacet
  facet normal 0 0 1
    outer loop
      vertex 1.74859 4.41644 4.2
      vertex 1.74859 -4.41644 4.2
      vertex 2.02245 -4.29793 4.2
    endloop
  endfacet
  facet normal 0 0 1
    outer loop
      vertex 1.46783 4.51752 4.2
      vertex 1.74859 -4.41644 4.2
      vertex 1.74859 4.41644 4.2
    endloop
  endfacet
  facet normal 0 0 1
    outer loop
      vertex 1.46783 4.51752 4.2
      vertex 1.46783 -4.51752 4.2
      vertex 1.74859 -4.41644 4.2
    endloop
  endfacet
  facet normal 0 0 1
    outer loop
      vertex 1.18128 4.60077 4.2
      vertex 1.46783 -4.51752 4.2
      vertex 1.46783 4.51752 4.2
    endloop
  endfacet
  facet normal 0 0 1
    outer loop
      vertex 1.18128 4.60077 4.2
      vertex 1.18128 -4.60077 4.2
      vertex 1.46783 -4.51752 4.2
    endloop
  endfacet
  facet normal 0 0 1
    outer loop
      vertex 0.89006 4.66586 4.2
      vertex 1.18128 -4.60077 4.2
      vertex 1.18128 4.60077 4.2
    endloop
  endfacet
  facet normal 0 0 1
    outer loop
      vertex 0.89006 4.66586 4.2
      vertex 0.89006 -4.66586 4.2
      vertex 1.18128 -4.60077 4.2
    endloop
  endfacet
  facet normal 0 0 1
    outer loop
      vertex 0.595332 4.71254 4.2
      vertex 0.89006 -4.66586 4.2
      vertex 0.89006 4.66586 4.2
    endloop
  endfacet
  facet normal 0 0 1
    outer loop
      vertex 0.595332 4.71254 4.2
      vertex 0.595332 -4.71254 4.2
      vertex 0.89006 -4.66586 4.2
    endloop
  endfacet
  facet normal 0 0 1
    outer loop
      vertex 0.298255 4.74063 4.2
      vertex 0.595332 -4.71254 4.2
      vertex 0.595332 4.71254 4.2
    endloop
  endfacet
  facet normal 0 0 1
    outer loop
      vertex 0.298255 4.74063 4.2
      vertex 0.298255 -4.74063 4.2
      vertex 0.595332 -4.71254 4.2
    endloop
  endfacet
  facet normal 0 0 1
    outer loop
      vertex 0 4.75 4.2
      vertex 0.298255 -4.74063 4.2
      vertex 0.298255 4.74063 4.2
    endloop
  endfacet
  facet normal 0 0 1
    outer loop
      vertex 0 4.75 4.2
      vertex 0 -4.75 4.2
      vertex 0.298255 -4.74063 4.2
    endloop
  endfacet
  facet normal -0 0 1
    outer loop
      vertex -0.298255 4.74063 4.2
      vertex 0 -4.75 4.2
      vertex 0 4.75 4.2
    endloop
  endfacet
  facet normal 0 0 1
    outer loop
      vertex -0.298255 4.74063 4.2
      vertex -0.298255 -4.74063 4.2
      vertex 0 -4.75 4.2
    endloop
  endfacet
  facet normal -0 0 1
    outer loop
      vertex -0.595332 4.71254 4.2
      vertex -0.298255 -4.74063 4.2
      vertex -0.298255 4.74063 4.2
    endloop
  endfacet
  facet normal 0 0 1
    outer loop
      vertex -0.595332 4.71254 4.2
      vertex -0.595332 -4.71254 4.2
      vertex -0.298255 -4.74063 4.2
    endloop
  endfacet
  facet normal -0 0 1
    outer loop
      vertex -0.89006 4.66586 4.2
      vertex -0.595332 -4.71254 4.2
      vertex -0.595332 4.71254 4.2
    endloop
  endfacet
  facet normal 0 0 1
    outer loop
      vertex -0.89006 4.66586 4.2
      vertex -0.89006 -4.66586 4.2
      vertex -0.595332 -4.71254 4.2
    endloop
  endfacet
  facet normal -0 0 1
    outer loop
      vertex -1.18128 4.60077 4.2
      vertex -0.89006 -4.66586 4.2
      vertex -0.89006 4.66586 4.2
    endloop
  endfacet
  facet normal 0 0 1
    outer loop
      vertex -1.18128 4.60077 4.2
      vertex -1.18128 -4.60077 4.2
      vertex -0.89006 -4.66586 4.2
    endloop
  endfacet
  facet normal -0 0 1
    outer loop
      vertex -1.46783 4.51752 4.2
      vertex -1.18128 -4.60077 4.2
      vertex -1.18128 4.60077 4.2
    endloop
  endfacet
  facet normal 0 0 1
    outer loop
      vertex -1.46783 4.51752 4.2
      vertex -1.46783 -4.51752 4.2
      vertex -1.18128 -4.60077 4.2
    endloop
  endfacet
  facet normal -0 0 1
    outer loop
      vertex -1.74859 4.41644 4.2
      vertex -1.46783 -4.51752 4.2
      vertex -1.46783 4.51752 4.2
    endloop
  endfacet
  facet normal 0 0 1
    outer loop
      vertex -1.74859 4.41644 4.2
      vertex -1.74859 -4.41644 4.2
      vertex -1.46783 -4.51752 4.2
    endloop
  endfacet
  facet normal -0 0 1
    outer loop
      vertex -2.02245 4.29793 4.2
      vertex -1.74859 -4.41644 4.2
      vertex -1.74859 4.41644 4.2
    endloop
  endfacet
  facet normal 0 0 1
    outer loop
      vertex -2.02245 4.29793 4.2
      vertex -2.02245 -4.29793 4.2
      vertex -1.74859 -4.41644 4.2
    endloop
  endfacet
  facet normal -0 0 1
    outer loop
      vertex -2.28833 4.16246 4.2
      vertex -2.02245 -4.29793 4.2
      vertex -2.02245 4.29793 4.2
    endloop
  endfacet
  facet normal 0 0 1
    outer loop
      vertex -2.28833 4.16246 4.2
      vertex -2.28833 -4.16246 4.2
      vertex -2.02245 -4.29793 4.2
    endloop
  endfacet
  facet normal -0 0 1
    outer loop
      vertex -2.54518 4.01056 4.2
      vertex -2.28833 -4.16246 4.2
      vertex -2.28833 4.16246 4.2
    endloop
  endfacet
  facet normal 0 0 1
    outer loop
      vertex -2.54518 4.01056 4.2
      vertex -2.54518 -4.01056 4.2
      vertex -2.28833 -4.16246 4.2
    endloop
  endfacet
  facet normal -0 0 1
    outer loop
      vertex -2.79198 3.84283 4.2
      vertex -2.54518 -4.01056 4.2
      vertex -2.54518 4.01056 4.2
    endloop
  endfacet
  facet normal 0 0 1
    outer loop
      vertex -2.79198 3.84283 4.2
      vertex -2.79198 -3.84283 4.2
      vertex -2.54518 -4.01056 4.2
    endloop
  endfacet
  facet normal -0 0 1
    outer loop
      vertex -3.02776 3.65994 4.2
      vertex -2.79198 -3.84283 4.2
      vertex -2.79198 3.84283 4.2
    endloop
  endfacet
  facet normal 0 0 1
    outer loop
      vertex -3.02776 3.65994 4.2
      vertex -3.02776 -3.65994 4.2
      vertex -2.79198 -3.84283 4.2
    endloop
  endfacet
  facet normal -0 0 1
    outer loop
      vertex -3.2516 3.4626 4.2
      vertex -3.02776 -3.65994 4.2
      vertex -3.02776 3.65994 4.2
    endloop
  endfacet
  facet normal 0 0 1
    outer loop
      vertex -3.2516 3.4626 4.2
      vertex -3.2516 -3.4626 4.2
      vertex -3.02776 -3.65994 4.2
    endloop
  endfacet
  facet normal -0 0 1
    outer loop
      vertex -3.4626 3.2516 4.2
      vertex -3.2516 -3.4626 4.2
      vertex -3.2516 3.4626 4.2
    endloop
  endfacet
  facet normal 0 0 1
    outer loop
      vertex -3.4626 3.2516 4.2
      vertex -3.4626 -3.2516 4.2
      vertex -3.2516 -3.4626 4.2
    endloop
  endfacet
  facet normal -0 0 1
    outer loop
      vertex -3.65994 3.02776 4.2
      vertex -3.4626 -3.2516 4.2
      vertex -3.4626 3.2516 4.2
    endloop
  endfacet
  facet normal 0 0 1
    outer loop
      vertex -3.65994 3.02776 4.2
      vertex -3.65994 -3.02776 4.2
      vertex -3.4626 -3.2516 4.2
    endloop
  endfacet
  facet normal -0 0 1
    outer loop
      vertex -3.84283 2.79198 4.2
      vertex -3.65994 -3.02776 4.2
      vertex -3.65994 3.02776 4.2
    endloop
  endfacet
  facet normal 0 0 1
    outer loop
      vertex -3.84283 2.79198 4.2
      vertex -3.84283 -2.79198 4.2
      vertex -3.65994 -3.02776 4.2
    endloop
  endfacet
  facet normal -0 0 1
    outer loop
      vertex -4.01056 2.54518 4.2
      vertex -3.84283 -2.79198 4.2
      vertex -3.84283 2.79198 4.2
    endloop
  endfacet
  facet normal 0 0 1
    outer loop
      vertex -4.01056 2.54518 4.2
      vertex -4.01056 -2.54518 4.2
      vertex -3.84283 -2.79198 4.2
    endloop
  endfacet
  facet normal -0 0 1
    outer loop
      vertex -4.16246 2.28833 4.2
      vertex -4.01056 -2.54518 4.2
      vertex -4.01056 2.54518 4.2
    endloop
  endfacet
  facet normal 0 0 1
    outer loop
      vertex -4.16246 2.28833 4.2
      vertex -4.16246 -2.28833 4.2
      vertex -4.01056 -2.54518 4.2
    endloop
  endfacet
  facet normal -0 0 1
    outer loop
      vertex -4.29793 2.02245 4.2
      vertex -4.16246 -2.28833 4.2
      vertex -4.16246 2.28833 4.2
    endloop
  endfacet
  facet normal 0 0 1
    outer loop
      vertex -4.29793 2.02245 4.2
      vertex -4.29793 -2.02245 4.2
      vertex -4.16246 -2.28833 4.2
    endloop
  endfacet
  facet normal -0 0 1
    outer loop
      vertex -4.41644 1.74859 4.2
      vertex -4.29793 -2.02245 4.2
      vertex -4.29793 2.02245 4.2
    endloop
  endfacet
  facet normal 0 0 1
    outer loop
      vertex -4.41644 1.74859 4.2
      vertex -4.41644 -1.74859 4.2
      vertex -4.29793 -2.02245 4.2
    endloop
  endfacet
  facet normal -0 0 1
    outer loop
      vertex -4.51752 1.46783 4.2
      vertex -4.41644 -1.74859 4.2
      vertex -4.41644 1.74859 4.2
    endloop
  endfacet
  facet normal 0 0 1
    outer loop
      vertex -4.51752 1.46783 4.2
      vertex -4.51752 -1.46783 4.2
      vertex -4.41644 -1.74859 4.2
    endloop
  endfacet
  facet normal -0 0 1
    outer loop
      vertex -4.60077 1.18128 4.2
      vertex -4.51752 -1.46783 4.2
      vertex -4.51752 1.46783 4.2
    endloop
  endfacet
  facet normal 0 0 1
    outer loop
      vertex -4.60077 1.18128 4.2
      vertex -4.60077 -1.18128 4.2
      vertex -4.51752 -1.46783 4.2
    endloop
  endfacet
  facet normal -0 0 1
    outer loop
      vertex -4.66586 0.89006 4.2
      vertex -4.60077 -1.18128 4.2
      vertex -4.60077 1.18128 4.2
    endloop
  endfacet
  facet normal 0 0 1
    outer loop
      vertex -4.66586 0.89006 4.2
      vertex -4.66586 -0.89006 4.2
      vertex -4.60077 -1.18128 4.2
    endloop
  endfacet
  facet normal -0 0 1
    outer loop
      vertex -4.71254 0.595332 4.2
      vertex -4.66586 -0.89006 4.2
      vertex -4.66586 0.89006 4.2
    endloop
  endfacet
  facet normal 0 0 1
    outer loop
      vertex -4.71254 0.595332 4.2
      vertex -4.71254 -0.595332 4.2
      vertex -4.66586 -0.89006 4.2
    endloop
  endfacet
  facet normal -0 0 1
    outer loop
      vertex -4.74063 0.298255 4.2
      vertex -4.71254 -0.595332 4.2
      vertex -4.71254 0.595332 4.2
    endloop
  endfacet
  facet normal 0 0 1
    outer loop
      vertex -4.74063 0.298255 4.2
      vertex -4.74063 -0.298255 4.2
      vertex -4.71254 -0.595332 4.2
    endloop
  endfacet
  facet normal 0 -0 1
    outer loop
      vertex -4.74063 -0.298255 4.2
      vertex -4.74063 0.298255 4.2
      vertex -4.75 0 4.2
    endloop
  endfacet
  facet normal -0.661309 -0.750114 0
    outer loop
      vertex -3.2516 -3.4626 1.35
      vertex -3.02776 -3.65994 4.2
      vertex -3.2516 -3.4626 4.2
    endloop
  endfacet
  facet normal -0.661309 -0.750114 -0
    outer loop
      vertex -3.02776 -3.65994 4.2
      vertex -3.2516 -3.4626 1.35
      vertex -3.02776 -3.65994 1.35
    endloop
  endfacet
  facet normal -0.917754 -0.397148 0
    outer loop
      vertex -4.29793 -2.02245 1.35
      vertex -4.41644 -1.74859 4.2
      vertex -4.41644 -1.74859 1.35
    endloop
  endfacet
  facet normal -0.917754 -0.397148 0
    outer loop
      vertex -4.41644 -1.74859 4.2
      vertex -4.29793 -2.02245 1.35
      vertex -4.29793 -2.02245 4.2
    endloop
  endfacet
endsolid OpenSCAD_Model
